%TF.GenerationSoftware,KiCad,Pcbnew,10.0.5+dfsg-1*%
%TF.CreationDate,2026-09-04T09:59:22+02:00*%
%TF.ProjectId,blesyn,626c6573-796e-42e6-9b69-6361645f7063,1.1*%
%TF.SameCoordinates,Original*%
%TF.FileFunction,Soldermask,Top*%
%TF.FilePolarity,Negative*%
%FSLAX46Y46*%
G04 Gerber Fmt 4.6, Leading zero omitted, Abs format (unit mm)*
G04 Created by KiCad (PCBNEW 10.0.5+dfsg-1) date 2026-09-04 09:59:22*
%MOMM*%
%LPD*%
G01*
G04 APERTURE LIST*
G04 Aperture macros list*
%AMRoundRect*
0 Rectangle with rounded corners*
0 $1 Rounding radius*
0 $2 $3 $4 $5 $6 $7 $8 $9 X,Y pos of 4 corners*
0 Add a 4 corners polygon primitive as box body*
4,1,4,$2,$3,$4,$5,$6,$7,$8,$9,$2,$3,0*
0 Add four circle primitives for the rounded corners*
1,1,$1+$1,$2,$3*
1,1,$1+$1,$4,$5*
1,1,$1+$1,$6,$7*
1,1,$1+$1,$8,$9*
0 Add four rect primitives between the rounded corners*
20,1,$1+$1,$2,$3,$4,$5,0*
20,1,$1+$1,$4,$5,$6,$7,0*
20,1,$1+$1,$6,$7,$8,$9,0*
20,1,$1+$1,$8,$9,$2,$3,0*%
G04 Aperture macros list end*
%ADD10RoundRect,0.250001X-0.499999X0.499999X-0.499999X-0.499999X0.499999X-0.499999X0.499999X0.499999X0*%
%ADD11C,1.500000*%
%ADD12C,1.600000*%
%ADD13RoundRect,0.152400X-1.063600X-0.609600X1.063600X-0.609600X1.063600X0.609600X-1.063600X0.609600X0*%
%ADD14C,1.524000*%
%ADD15RoundRect,0.152400X1.063600X0.609600X-1.063600X0.609600X-1.063600X-0.609600X1.063600X-0.609600X0*%
%ADD16R,1.500000X2.300000*%
%ADD17O,1.500000X2.300000*%
%ADD18C,3.250000*%
%ADD19RoundRect,0.250000X0.510000X0.510000X-0.510000X0.510000X-0.510000X-0.510000X0.510000X-0.510000X0*%
%ADD20C,1.520000*%
G04 APERTURE END LIST*
D10*
%TO.C,D1*%
X58810000Y-136110000D03*
D11*
X58810000Y-143730000D03*
%TD*%
D12*
%TO.C,R2*%
X66430000Y-143730000D03*
X66430000Y-133570000D03*
%TD*%
%TO.C,R1*%
X61350000Y-143730000D03*
X61350000Y-133570000D03*
%TD*%
D13*
%TO.C,U1*%
X72345000Y-141190000D03*
D14*
X71510000Y-141190000D03*
D13*
X72345000Y-138650000D03*
D14*
X71510000Y-138650000D03*
D13*
X72345000Y-136110000D03*
D14*
X71510000Y-136110000D03*
D13*
X72345000Y-133570000D03*
D14*
X71510000Y-133570000D03*
D13*
X72345000Y-131030000D03*
D14*
X71510000Y-131030000D03*
D13*
X72345000Y-128490000D03*
D14*
X71510000Y-128490000D03*
D13*
X72345000Y-125950000D03*
D14*
X71510000Y-125950000D03*
X56270000Y-125950000D03*
D15*
X55435000Y-125950000D03*
D14*
X56270000Y-128490000D03*
D15*
X55435000Y-128490000D03*
D14*
X56270000Y-131030000D03*
D15*
X55435000Y-131030000D03*
D14*
X56270000Y-133570000D03*
D15*
X55435000Y-133570000D03*
D14*
X56270000Y-136110000D03*
D15*
X55435000Y-136110000D03*
D14*
X56270000Y-138650000D03*
D15*
X55435000Y-138650000D03*
D14*
X56270000Y-141190000D03*
D15*
X55435000Y-141190000D03*
%TD*%
D16*
%TO.C,U2*%
X66430000Y-125950000D03*
D17*
X63890000Y-125950000D03*
X61350000Y-125950000D03*
%TD*%
D10*
%TO.C,D2*%
X68970000Y-136110000D03*
D11*
X68970000Y-143730000D03*
%TD*%
D18*
%TO.C,J1*%
X68970000Y-111980000D03*
X58810000Y-111980000D03*
D19*
X67070000Y-120870000D03*
D20*
X65800000Y-118330000D03*
X64530000Y-120870000D03*
X63260000Y-118330000D03*
X61990000Y-120870000D03*
X60720000Y-118330000D03*
%TD*%
M02*
