%TF.GenerationSoftware,KiCad,Pcbnew,10.0.4+b1*%
%TF.CreationDate,2026-08-03T18:47:33+02:00*%
%TF.ProjectId,blesyn,626c6573-796e-42e6-9b69-6361645f7063,rev?*%
%TF.SameCoordinates,Original*%
%TF.FileFunction,Copper,L2,Bot*%
%TF.FilePolarity,Positive*%
%FSLAX46Y46*%
G04 Gerber Fmt 4.6, Leading zero omitted, Abs format (unit mm)*
G04 Created by KiCad (PCBNEW 10.0.4+b1) date 2026-08-03 18:47:33*
%MOMM*%
%LPD*%
G01*
G04 APERTURE LIST*
G04 Aperture macros list*
%AMRoundRect*
0 Rectangle with rounded corners*
0 $1 Rounding radius*
0 $2 $3 $4 $5 $6 $7 $8 $9 X,Y pos of 4 corners*
0 Add a 4 corners polygon primitive as box body*
4,1,4,$2,$3,$4,$5,$6,$7,$8,$9,$2,$3,0*
0 Add four circle primitives for the rounded corners*
1,1,$1+$1,$2,$3*
1,1,$1+$1,$4,$5*
1,1,$1+$1,$6,$7*
1,1,$1+$1,$8,$9*
0 Add four rect primitives between the rounded corners*
20,1,$1+$1,$2,$3,$4,$5,0*
20,1,$1+$1,$4,$5,$6,$7,0*
20,1,$1+$1,$6,$7,$8,$9,0*
20,1,$1+$1,$8,$9,$2,$3,0*%
G04 Aperture macros list end*
%TA.AperFunction,ComponentPad*%
%ADD10RoundRect,0.250001X-0.499999X0.499999X-0.499999X-0.499999X0.499999X-0.499999X0.499999X0.499999X0*%
%TD*%
%TA.AperFunction,ComponentPad*%
%ADD11C,1.500000*%
%TD*%
%TA.AperFunction,ComponentPad*%
%ADD12C,1.600000*%
%TD*%
%TA.AperFunction,ComponentPad*%
%ADD13C,1.524000*%
%TD*%
%TA.AperFunction,ComponentPad*%
%ADD14R,1.500000X2.300000*%
%TD*%
%TA.AperFunction,ComponentPad*%
%ADD15O,1.500000X2.300000*%
%TD*%
%TA.AperFunction,ComponentPad*%
%ADD16RoundRect,0.250000X0.510000X0.510000X-0.510000X0.510000X-0.510000X-0.510000X0.510000X-0.510000X0*%
%TD*%
%TA.AperFunction,ComponentPad*%
%ADD17C,1.520000*%
%TD*%
%TA.AperFunction,Conductor*%
%ADD18C,0.400000*%
%TD*%
G04 APERTURE END LIST*
D10*
%TO.P,D1,1,K_1*%
%TO.N,Net-(D1-K)*%
X58810000Y-136110000D03*
D11*
%TO.P,D1,2,A_2*%
%TO.N,/RX*%
X58810000Y-143730000D03*
%TD*%
D12*
%TO.P,R2,1*%
%TO.N,/TX*%
X66430000Y-143730000D03*
%TO.P,R2,2*%
%TO.N,Net-(D2-K)*%
X66430000Y-133570000D03*
%TD*%
%TO.P,R1,1*%
%TO.N,/RX*%
X61350000Y-143730000D03*
%TO.P,R1,2*%
%TO.N,Net-(D1-K)*%
X61350000Y-133570000D03*
%TD*%
D13*
%TO.P,U1,1,D0_1*%
%TO.N,unconnected-(U1-D0-Pad1)*%
X71510000Y-141190000D03*
%TO.P,U1,2,D1_2*%
%TO.N,unconnected-(U1-D1-Pad2)*%
X71510000Y-138650000D03*
%TO.P,U1,3,D2_3*%
%TO.N,unconnected-(U1-D2-Pad3)*%
X71510000Y-136110000D03*
%TO.P,U1,4,D3_4*%
%TO.N,unconnected-(U1-D3-Pad4)*%
X71510000Y-133570000D03*
%TO.P,U1,5,D4_5*%
%TO.N,unconnected-(U1-D4-Pad5)*%
X71510000Y-131030000D03*
%TO.P,U1,6,D5_6*%
%TO.N,Net-(D2-K)*%
X71510000Y-128490000D03*
%TO.P,U1,7,D6_7*%
%TO.N,/TX*%
X71510000Y-125950000D03*
%TO.P,U1,8,D7_8*%
%TO.N,/RX*%
X56270000Y-125950000D03*
%TO.P,U1,9,D8_9*%
%TO.N,Net-(D1-K)*%
X56270000Y-128490000D03*
%TO.P,U1,10,D9_10*%
%TO.N,unconnected-(U1-D9-Pad10)*%
X56270000Y-131030000D03*
%TO.P,U1,11,D10_11*%
%TO.N,unconnected-(U1-D10-Pad11)*%
X56270000Y-133570000D03*
%TO.P,U1,12,3V3_OUT_12*%
%TO.N,Net-(U1-3V3_OUT)*%
X56270000Y-136110000D03*
%TO.P,U1,13,GND_13*%
%TO.N,GND*%
X56270000Y-138650000D03*
%TO.P,U1,14,VBUS_14*%
%TO.N,unconnected-(U1-VBUS-Pad14)*%
X56270000Y-141190000D03*
%TD*%
D14*
%TO.P,U2,1,IN_1*%
%TO.N,+12V*%
X66430000Y-125950000D03*
D15*
%TO.P,U2,2,GND_2*%
%TO.N,GND*%
X63890000Y-125950000D03*
%TO.P,U2,3,OUT_3*%
%TO.N,Net-(U1-3V3_OUT)*%
X61350000Y-125950000D03*
%TD*%
D10*
%TO.P,D2,1,K_1*%
%TO.N,Net-(D2-K)*%
X68970000Y-136110000D03*
D11*
%TO.P,D2,2,A_2*%
%TO.N,/TX*%
X68970000Y-143730000D03*
%TD*%
D16*
%TO.P,J1,1*%
%TO.N,unconnected-(J1-Pad1)*%
X67070000Y-122290000D03*
D17*
%TO.P,J1,2*%
%TO.N,/TX*%
X65800000Y-119750000D03*
%TO.P,J1,3*%
%TO.N,+12V*%
X64530000Y-122290000D03*
%TO.P,J1,4*%
%TO.N,/RX*%
X63260000Y-119750000D03*
%TO.P,J1,5*%
%TO.N,GND*%
X61990000Y-122290000D03*
%TO.P,J1,6*%
%TO.N,unconnected-(J1-Pad6)*%
X60720000Y-119750000D03*
%TD*%
%TO.N,Net-(D1-K)*%
D18*
X56270000Y-128490000D02*
X58810000Y-131030000D01*
X58810000Y-131030000D02*
X58810000Y-133570000D01*
X61350000Y-133570000D02*
X58810000Y-133570000D01*
X58810000Y-133570000D02*
X58810000Y-136110000D01*
%TO.N,/RX*%
X57540000Y-118330000D02*
X61840000Y-118330000D01*
X63255000Y-132935000D02*
X56270000Y-125950000D01*
X58810000Y-143730000D02*
X61350000Y-143730000D01*
X61350000Y-143730000D02*
X63255000Y-141825000D01*
X63255000Y-141825000D02*
X63255000Y-132935000D01*
X56270000Y-125950000D02*
X56270000Y-119600000D01*
X61840000Y-118330000D02*
X63260000Y-119750000D01*
X56270000Y-119600000D02*
X57540000Y-118330000D01*
%TO.N,/TX*%
X66430000Y-143730000D02*
X64525000Y-141825000D01*
X70390000Y-119750000D02*
X65800000Y-119750000D01*
X64525000Y-132935000D02*
X71510000Y-125950000D01*
X66430000Y-143730000D02*
X68970000Y-143730000D01*
X71510000Y-120870000D02*
X70390000Y-119750000D01*
X64525000Y-141825000D02*
X64525000Y-132935000D01*
X71510000Y-125950000D02*
X71510000Y-120870000D01*
%TO.N,Net-(D2-K)*%
X71510000Y-128490000D02*
X68970000Y-131030000D01*
X68970000Y-131030000D02*
X68970000Y-133570000D01*
X66430000Y-133570000D02*
X68970000Y-133570000D01*
X68970000Y-133570000D02*
X68970000Y-136110000D01*
%TO.N,GND*%
X61990000Y-122780000D02*
X63890000Y-124680000D01*
X63890000Y-124680000D02*
X63890000Y-125950000D01*
X61990000Y-122290000D02*
X61990000Y-122780000D01*
%TO.N,+12V*%
X64530000Y-122290000D02*
X64530000Y-122780000D01*
X66430000Y-124680000D02*
X66430000Y-125950000D01*
X64530000Y-122780000D02*
X66430000Y-124680000D01*
%TD*%
%TA.AperFunction,Conductor*%
%TO.N,GND*%
G36*
X70784042Y-109515729D02*
G01*
X70804537Y-109517072D01*
X71023106Y-109531397D01*
X71039154Y-109533510D01*
X71060785Y-109537813D01*
X71092039Y-109548519D01*
X72108030Y-110056515D01*
X72159188Y-110104102D01*
X72163484Y-110111969D01*
X72671432Y-111127864D01*
X72682140Y-111159126D01*
X72686449Y-111180787D01*
X72688567Y-111196870D01*
X72704235Y-111435920D01*
X72704500Y-111444030D01*
X72704500Y-142995904D01*
X72704235Y-143004007D01*
X72704235Y-143004010D01*
X72688574Y-143243055D01*
X72686457Y-143259138D01*
X72682131Y-143280888D01*
X72671422Y-143312153D01*
X72163484Y-144328029D01*
X72115897Y-144379188D01*
X72108029Y-144383484D01*
X71092244Y-144891375D01*
X71060983Y-144902083D01*
X71039181Y-144906420D01*
X71023094Y-144908538D01*
X70784047Y-144924199D01*
X70775941Y-144924464D01*
X66556120Y-144924464D01*
X66489081Y-144904779D01*
X66443326Y-144851975D01*
X66433382Y-144782817D01*
X66462407Y-144719261D01*
X66521185Y-144681487D01*
X66531929Y-144678847D01*
X66616109Y-144662102D01*
X66707251Y-144643973D01*
X66880231Y-144572322D01*
X67035908Y-144468302D01*
X67168302Y-144335908D01*
X67272322Y-144180231D01*
X67281925Y-144157046D01*
X67325765Y-144102644D01*
X67392059Y-144080579D01*
X67396486Y-144080500D01*
X68057633Y-144080500D01*
X68124672Y-144100185D01*
X68168942Y-144151275D01*
X68169119Y-144151181D01*
X68169535Y-144151959D01*
X68170427Y-144152989D01*
X68171928Y-144156437D01*
X68171988Y-144156550D01*
X68270535Y-144304034D01*
X68270538Y-144304038D01*
X68395961Y-144429461D01*
X68395965Y-144429464D01*
X68543446Y-144528009D01*
X68543459Y-144528016D01*
X68650428Y-144572323D01*
X68707334Y-144595894D01*
X68707336Y-144595894D01*
X68707341Y-144595896D01*
X68881304Y-144630499D01*
X68881307Y-144630500D01*
X68881309Y-144630500D01*
X69058693Y-144630500D01*
X69058694Y-144630499D01*
X69116682Y-144618964D01*
X69232658Y-144595896D01*
X69232661Y-144595894D01*
X69232666Y-144595894D01*
X69396547Y-144528013D01*
X69544035Y-144429464D01*
X69669464Y-144304035D01*
X69768013Y-144156547D01*
X69769981Y-144151797D01*
X69791359Y-144100185D01*
X69835894Y-143992666D01*
X69841952Y-143962214D01*
X69858964Y-143876682D01*
X69870500Y-143818691D01*
X69870500Y-143641309D01*
X69870500Y-143641306D01*
X69870499Y-143641304D01*
X69835896Y-143467341D01*
X69835893Y-143467332D01*
X69829853Y-143452751D01*
X69810383Y-143405745D01*
X69768016Y-143303459D01*
X69768009Y-143303446D01*
X69669464Y-143155965D01*
X69669461Y-143155961D01*
X69544038Y-143030538D01*
X69544034Y-143030535D01*
X69396553Y-142931990D01*
X69396540Y-142931983D01*
X69232667Y-142864106D01*
X69232658Y-142864103D01*
X69058694Y-142829500D01*
X69058691Y-142829500D01*
X68881309Y-142829500D01*
X68881306Y-142829500D01*
X68707341Y-142864103D01*
X68707332Y-142864106D01*
X68543459Y-142931983D01*
X68543446Y-142931990D01*
X68395965Y-143030535D01*
X68395961Y-143030538D01*
X68270538Y-143155961D01*
X68270535Y-143155965D01*
X68171988Y-143303449D01*
X68169119Y-143308819D01*
X68167965Y-143308202D01*
X68128347Y-143357360D01*
X68062052Y-143379421D01*
X68057633Y-143379500D01*
X67396486Y-143379500D01*
X67329447Y-143359815D01*
X67283692Y-143307011D01*
X67281938Y-143302986D01*
X67272322Y-143279769D01*
X67272320Y-143279766D01*
X67272318Y-143279762D01*
X67168302Y-143124092D01*
X67168299Y-143124088D01*
X67035911Y-142991700D01*
X67035907Y-142991697D01*
X66880237Y-142887681D01*
X66880228Y-142887676D01*
X66707251Y-142816027D01*
X66707243Y-142816025D01*
X66523620Y-142779500D01*
X66523616Y-142779500D01*
X66336384Y-142779500D01*
X66336379Y-142779500D01*
X66152751Y-142816025D01*
X66152743Y-142816028D01*
X66129562Y-142825630D01*
X66060093Y-142833097D01*
X65997614Y-142801821D01*
X65994431Y-142798749D01*
X64911819Y-141716137D01*
X64878334Y-141654814D01*
X64875500Y-141628456D01*
X64875500Y-141100122D01*
X70597500Y-141100122D01*
X70597500Y-141279877D01*
X70632565Y-141456158D01*
X70632568Y-141456170D01*
X70701349Y-141622224D01*
X70701356Y-141622237D01*
X70801214Y-141771684D01*
X70801217Y-141771688D01*
X70928311Y-141898782D01*
X70928315Y-141898785D01*
X71077762Y-141998643D01*
X71077775Y-141998650D01*
X71243829Y-142067431D01*
X71243834Y-142067433D01*
X71420122Y-142102499D01*
X71420125Y-142102500D01*
X71420127Y-142102500D01*
X71599875Y-142102500D01*
X71599876Y-142102499D01*
X71776166Y-142067433D01*
X71942231Y-141998647D01*
X72091685Y-141898785D01*
X72218785Y-141771685D01*
X72318647Y-141622231D01*
X72387433Y-141456166D01*
X72422500Y-141279873D01*
X72422500Y-141100127D01*
X72422500Y-141100124D01*
X72422499Y-141100122D01*
X72387434Y-140923841D01*
X72387433Y-140923834D01*
X72387431Y-140923829D01*
X72318650Y-140757775D01*
X72318643Y-140757762D01*
X72218785Y-140608315D01*
X72218782Y-140608311D01*
X72091688Y-140481217D01*
X72091684Y-140481214D01*
X71942237Y-140381356D01*
X71942224Y-140381349D01*
X71776170Y-140312568D01*
X71776158Y-140312565D01*
X71599876Y-140277500D01*
X71599873Y-140277500D01*
X71420127Y-140277500D01*
X71420124Y-140277500D01*
X71243841Y-140312565D01*
X71243829Y-140312568D01*
X71077775Y-140381349D01*
X71077762Y-140381356D01*
X70928315Y-140481214D01*
X70928311Y-140481217D01*
X70801217Y-140608311D01*
X70801214Y-140608315D01*
X70701356Y-140757762D01*
X70701349Y-140757775D01*
X70632568Y-140923829D01*
X70632565Y-140923841D01*
X70597500Y-141100122D01*
X64875500Y-141100122D01*
X64875500Y-138560122D01*
X70597500Y-138560122D01*
X70597500Y-138739877D01*
X70632565Y-138916158D01*
X70632568Y-138916170D01*
X70701349Y-139082224D01*
X70701356Y-139082237D01*
X70801214Y-139231684D01*
X70801217Y-139231688D01*
X70928311Y-139358782D01*
X70928315Y-139358785D01*
X71077762Y-139458643D01*
X71077775Y-139458650D01*
X71243829Y-139527431D01*
X71243834Y-139527433D01*
X71420122Y-139562499D01*
X71420125Y-139562500D01*
X71420127Y-139562500D01*
X71599875Y-139562500D01*
X71599876Y-139562499D01*
X71776166Y-139527433D01*
X71942231Y-139458647D01*
X72091685Y-139358785D01*
X72218785Y-139231685D01*
X72318647Y-139082231D01*
X72387433Y-138916166D01*
X72422500Y-138739873D01*
X72422500Y-138560127D01*
X72422500Y-138560124D01*
X72422499Y-138560122D01*
X72387434Y-138383841D01*
X72387433Y-138383834D01*
X72350352Y-138294311D01*
X72318650Y-138217775D01*
X72318643Y-138217762D01*
X72218785Y-138068315D01*
X72218782Y-138068311D01*
X72091688Y-137941217D01*
X72091684Y-137941214D01*
X71942237Y-137841356D01*
X71942224Y-137841349D01*
X71776170Y-137772568D01*
X71776158Y-137772565D01*
X71599876Y-137737500D01*
X71599873Y-137737500D01*
X71420127Y-137737500D01*
X71420124Y-137737500D01*
X71243841Y-137772565D01*
X71243829Y-137772568D01*
X71077775Y-137841349D01*
X71077762Y-137841356D01*
X70928315Y-137941214D01*
X70928311Y-137941217D01*
X70801217Y-138068311D01*
X70801214Y-138068315D01*
X70701356Y-138217762D01*
X70701349Y-138217775D01*
X70632568Y-138383829D01*
X70632565Y-138383841D01*
X70597500Y-138560122D01*
X64875500Y-138560122D01*
X64875500Y-133476379D01*
X65479500Y-133476379D01*
X65479500Y-133663620D01*
X65516025Y-133847243D01*
X65516027Y-133847251D01*
X65587676Y-134020228D01*
X65587681Y-134020237D01*
X65691697Y-134175907D01*
X65691700Y-134175911D01*
X65824088Y-134308299D01*
X65824092Y-134308302D01*
X65979762Y-134412318D01*
X65979768Y-134412321D01*
X65979769Y-134412322D01*
X66152749Y-134483973D01*
X66336379Y-134520499D01*
X66336383Y-134520500D01*
X66336384Y-134520500D01*
X66523617Y-134520500D01*
X66523618Y-134520499D01*
X66707251Y-134483973D01*
X66880231Y-134412322D01*
X67035908Y-134308302D01*
X67168302Y-134175908D01*
X67272322Y-134020231D01*
X67281925Y-133997046D01*
X67325765Y-133942644D01*
X67392059Y-133920579D01*
X67396486Y-133920500D01*
X68495500Y-133920500D01*
X68562539Y-133940185D01*
X68608294Y-133992989D01*
X68619500Y-134044500D01*
X68619500Y-135085500D01*
X68599815Y-135152539D01*
X68547011Y-135198294D01*
X68495500Y-135209500D01*
X68438477Y-135209500D01*
X68344701Y-135224352D01*
X68231656Y-135281951D01*
X68231652Y-135281954D01*
X68141954Y-135371652D01*
X68141951Y-135371656D01*
X68084352Y-135484701D01*
X68069500Y-135578476D01*
X68069500Y-136641523D01*
X68084352Y-136735298D01*
X68084353Y-136735301D01*
X68084354Y-136735303D01*
X68141950Y-136848342D01*
X68141951Y-136848343D01*
X68141954Y-136848347D01*
X68231652Y-136938045D01*
X68231656Y-136938048D01*
X68231658Y-136938050D01*
X68344697Y-136995646D01*
X68344699Y-136995646D01*
X68344701Y-136995647D01*
X68438477Y-137010500D01*
X68438482Y-137010500D01*
X69501523Y-137010500D01*
X69595298Y-136995647D01*
X69595298Y-136995646D01*
X69595303Y-136995646D01*
X69708342Y-136938050D01*
X69798050Y-136848342D01*
X69855646Y-136735303D01*
X69862554Y-136691688D01*
X69870500Y-136641523D01*
X69870500Y-136020122D01*
X70597500Y-136020122D01*
X70597500Y-136199877D01*
X70632565Y-136376158D01*
X70632568Y-136376170D01*
X70701349Y-136542224D01*
X70701356Y-136542237D01*
X70801214Y-136691684D01*
X70801217Y-136691688D01*
X70928311Y-136818782D01*
X70928315Y-136818785D01*
X71077762Y-136918643D01*
X71077775Y-136918650D01*
X71243829Y-136987431D01*
X71243834Y-136987433D01*
X71420122Y-137022499D01*
X71420125Y-137022500D01*
X71420127Y-137022500D01*
X71599875Y-137022500D01*
X71599876Y-137022499D01*
X71776166Y-136987433D01*
X71942231Y-136918647D01*
X72091685Y-136818785D01*
X72218785Y-136691685D01*
X72318647Y-136542231D01*
X72387433Y-136376166D01*
X72422500Y-136199873D01*
X72422500Y-136020127D01*
X72422500Y-136020124D01*
X72422499Y-136020122D01*
X72387434Y-135843841D01*
X72387433Y-135843834D01*
X72387431Y-135843829D01*
X72318650Y-135677775D01*
X72318643Y-135677762D01*
X72218785Y-135528315D01*
X72218782Y-135528311D01*
X72091688Y-135401217D01*
X72091684Y-135401214D01*
X71942237Y-135301356D01*
X71942224Y-135301349D01*
X71776170Y-135232568D01*
X71776158Y-135232565D01*
X71599876Y-135197500D01*
X71599873Y-135197500D01*
X71420127Y-135197500D01*
X71420124Y-135197500D01*
X71243841Y-135232565D01*
X71243829Y-135232568D01*
X71077775Y-135301349D01*
X71077762Y-135301356D01*
X70928315Y-135401214D01*
X70928311Y-135401217D01*
X70801217Y-135528311D01*
X70801214Y-135528315D01*
X70701356Y-135677762D01*
X70701349Y-135677775D01*
X70632568Y-135843829D01*
X70632565Y-135843841D01*
X70597500Y-136020122D01*
X69870500Y-136020122D01*
X69870500Y-135578476D01*
X69855647Y-135484701D01*
X69855646Y-135484699D01*
X69855646Y-135484697D01*
X69798050Y-135371658D01*
X69798048Y-135371656D01*
X69798045Y-135371652D01*
X69708347Y-135281954D01*
X69708343Y-135281951D01*
X69708342Y-135281950D01*
X69595303Y-135224354D01*
X69595301Y-135224353D01*
X69595298Y-135224352D01*
X69501523Y-135209500D01*
X69501518Y-135209500D01*
X69444500Y-135209500D01*
X69377461Y-135189815D01*
X69331706Y-135137011D01*
X69320500Y-135085500D01*
X69320500Y-133480122D01*
X70597500Y-133480122D01*
X70597500Y-133659877D01*
X70632565Y-133836158D01*
X70632568Y-133836170D01*
X70701349Y-134002224D01*
X70701356Y-134002237D01*
X70801214Y-134151684D01*
X70801217Y-134151688D01*
X70928311Y-134278782D01*
X70928315Y-134278785D01*
X71077762Y-134378643D01*
X71077775Y-134378650D01*
X71159070Y-134412323D01*
X71243834Y-134447433D01*
X71420122Y-134482499D01*
X71420125Y-134482500D01*
X71420127Y-134482500D01*
X71599875Y-134482500D01*
X71599876Y-134482499D01*
X71776166Y-134447433D01*
X71942231Y-134378647D01*
X72091685Y-134278785D01*
X72218785Y-134151685D01*
X72318647Y-134002231D01*
X72387433Y-133836166D01*
X72422500Y-133659873D01*
X72422500Y-133480127D01*
X72422500Y-133480124D01*
X72422499Y-133480122D01*
X72387434Y-133303841D01*
X72387433Y-133303834D01*
X72382844Y-133292756D01*
X72318650Y-133137775D01*
X72318643Y-133137762D01*
X72218785Y-132988315D01*
X72218782Y-132988311D01*
X72091688Y-132861217D01*
X72091684Y-132861214D01*
X71942237Y-132761356D01*
X71942224Y-132761349D01*
X71776170Y-132692568D01*
X71776158Y-132692565D01*
X71599876Y-132657500D01*
X71599873Y-132657500D01*
X71420127Y-132657500D01*
X71420124Y-132657500D01*
X71243841Y-132692565D01*
X71243829Y-132692568D01*
X71077775Y-132761349D01*
X71077762Y-132761356D01*
X70928315Y-132861214D01*
X70928311Y-132861217D01*
X70801217Y-132988311D01*
X70801214Y-132988315D01*
X70701356Y-133137762D01*
X70701349Y-133137775D01*
X70632568Y-133303829D01*
X70632565Y-133303841D01*
X70597500Y-133480122D01*
X69320500Y-133480122D01*
X69320500Y-131226543D01*
X69340185Y-131159504D01*
X69356814Y-131138867D01*
X69555559Y-130940122D01*
X70597500Y-130940122D01*
X70597500Y-131119877D01*
X70632565Y-131296158D01*
X70632568Y-131296170D01*
X70701349Y-131462224D01*
X70701356Y-131462237D01*
X70801214Y-131611684D01*
X70801217Y-131611688D01*
X70928311Y-131738782D01*
X70928315Y-131738785D01*
X71077762Y-131838643D01*
X71077775Y-131838650D01*
X71243829Y-131907431D01*
X71243834Y-131907433D01*
X71420122Y-131942499D01*
X71420125Y-131942500D01*
X71420127Y-131942500D01*
X71599875Y-131942500D01*
X71599876Y-131942499D01*
X71776166Y-131907433D01*
X71942231Y-131838647D01*
X72091685Y-131738785D01*
X72218785Y-131611685D01*
X72318647Y-131462231D01*
X72387433Y-131296166D01*
X72422500Y-131119873D01*
X72422500Y-130940127D01*
X72422500Y-130940124D01*
X72422499Y-130940122D01*
X72397568Y-130814786D01*
X72387433Y-130763834D01*
X72387431Y-130763829D01*
X72318650Y-130597775D01*
X72318643Y-130597762D01*
X72218785Y-130448315D01*
X72218782Y-130448311D01*
X72091688Y-130321217D01*
X72091684Y-130321214D01*
X71942237Y-130221356D01*
X71942224Y-130221349D01*
X71776170Y-130152568D01*
X71776158Y-130152565D01*
X71599876Y-130117500D01*
X71599873Y-130117500D01*
X71420127Y-130117500D01*
X71420124Y-130117500D01*
X71243841Y-130152565D01*
X71243829Y-130152568D01*
X71077775Y-130221349D01*
X71077762Y-130221356D01*
X70928315Y-130321214D01*
X70928311Y-130321217D01*
X70801217Y-130448311D01*
X70801214Y-130448315D01*
X70701356Y-130597762D01*
X70701349Y-130597775D01*
X70632568Y-130763829D01*
X70632565Y-130763841D01*
X70597500Y-130940122D01*
X69555559Y-130940122D01*
X71103517Y-129392163D01*
X71164838Y-129358680D01*
X71234530Y-129363664D01*
X71238641Y-129365282D01*
X71243834Y-129367433D01*
X71243836Y-129367433D01*
X71243841Y-129367435D01*
X71420122Y-129402499D01*
X71420125Y-129402500D01*
X71420127Y-129402500D01*
X71599875Y-129402500D01*
X71599876Y-129402499D01*
X71776166Y-129367433D01*
X71942231Y-129298647D01*
X72091685Y-129198785D01*
X72218785Y-129071685D01*
X72318647Y-128922231D01*
X72387433Y-128756166D01*
X72422500Y-128579873D01*
X72422500Y-128400127D01*
X72422500Y-128400124D01*
X72422499Y-128400122D01*
X72387434Y-128223841D01*
X72387433Y-128223834D01*
X72387431Y-128223829D01*
X72318650Y-128057775D01*
X72318643Y-128057762D01*
X72218785Y-127908315D01*
X72218782Y-127908311D01*
X72091688Y-127781217D01*
X72091684Y-127781214D01*
X71942237Y-127681356D01*
X71942224Y-127681349D01*
X71776170Y-127612568D01*
X71776158Y-127612565D01*
X71599876Y-127577500D01*
X71599873Y-127577500D01*
X71420127Y-127577500D01*
X71420124Y-127577500D01*
X71243841Y-127612565D01*
X71243829Y-127612568D01*
X71077775Y-127681349D01*
X71077762Y-127681356D01*
X70928315Y-127781214D01*
X70928311Y-127781217D01*
X70801217Y-127908311D01*
X70801214Y-127908315D01*
X70701356Y-128057762D01*
X70701349Y-128057775D01*
X70632568Y-128223829D01*
X70632565Y-128223841D01*
X70597500Y-128400122D01*
X70597500Y-128579877D01*
X70632565Y-128756163D01*
X70632568Y-128756170D01*
X70634715Y-128761354D01*
X70642181Y-128830823D01*
X70610904Y-128893301D01*
X70607833Y-128896483D01*
X68689531Y-130814786D01*
X68689527Y-130814791D01*
X68643387Y-130894709D01*
X68643386Y-130894712D01*
X68619500Y-130983856D01*
X68619500Y-133095500D01*
X68599815Y-133162539D01*
X68547011Y-133208294D01*
X68495500Y-133219500D01*
X67396486Y-133219500D01*
X67329447Y-133199815D01*
X67283692Y-133147011D01*
X67281938Y-133142986D01*
X67272322Y-133119769D01*
X67272320Y-133119766D01*
X67272318Y-133119762D01*
X67168302Y-132964092D01*
X67168299Y-132964088D01*
X67035911Y-132831700D01*
X67035907Y-132831697D01*
X66880237Y-132727681D01*
X66880228Y-132727676D01*
X66707251Y-132656027D01*
X66707243Y-132656025D01*
X66523620Y-132619500D01*
X66523616Y-132619500D01*
X66336384Y-132619500D01*
X66336379Y-132619500D01*
X66152756Y-132656025D01*
X66152748Y-132656027D01*
X65979771Y-132727676D01*
X65979762Y-132727681D01*
X65824092Y-132831697D01*
X65824088Y-132831700D01*
X65691700Y-132964088D01*
X65691697Y-132964092D01*
X65587681Y-133119762D01*
X65587676Y-133119771D01*
X65516027Y-133292748D01*
X65516025Y-133292756D01*
X65479500Y-133476379D01*
X64875500Y-133476379D01*
X64875500Y-133131543D01*
X64895185Y-133064504D01*
X64911814Y-133043867D01*
X71103517Y-126852163D01*
X71164838Y-126818680D01*
X71234530Y-126823664D01*
X71238641Y-126825282D01*
X71243834Y-126827433D01*
X71243836Y-126827433D01*
X71243841Y-126827435D01*
X71420122Y-126862499D01*
X71420125Y-126862500D01*
X71420127Y-126862500D01*
X71599875Y-126862500D01*
X71599876Y-126862499D01*
X71776166Y-126827433D01*
X71942231Y-126758647D01*
X72091685Y-126658785D01*
X72218785Y-126531685D01*
X72318647Y-126382231D01*
X72387433Y-126216166D01*
X72422500Y-126039873D01*
X72422500Y-125860127D01*
X72422500Y-125860124D01*
X72422499Y-125860122D01*
X72401988Y-125757007D01*
X72387433Y-125683834D01*
X72370516Y-125642993D01*
X72318650Y-125517775D01*
X72318643Y-125517762D01*
X72218785Y-125368315D01*
X72218782Y-125368311D01*
X72091688Y-125241217D01*
X72091684Y-125241214D01*
X71942237Y-125141356D01*
X71942222Y-125141348D01*
X71937043Y-125139203D01*
X71882641Y-125095360D01*
X71860579Y-125029065D01*
X71860500Y-125024644D01*
X71860500Y-120823858D01*
X71860500Y-120823856D01*
X71836614Y-120734712D01*
X71790470Y-120654788D01*
X70605212Y-119469530D01*
X70605211Y-119469529D01*
X70605208Y-119469527D01*
X70525290Y-119423387D01*
X70525289Y-119423386D01*
X70525288Y-119423386D01*
X70436144Y-119399500D01*
X70436143Y-119399500D01*
X66723191Y-119399500D01*
X66656152Y-119379815D01*
X66610397Y-119327011D01*
X66608629Y-119322951D01*
X66606875Y-119318716D01*
X66606871Y-119318709D01*
X66507232Y-119169590D01*
X66507229Y-119169586D01*
X66380413Y-119042770D01*
X66380409Y-119042767D01*
X66231290Y-118943128D01*
X66231277Y-118943121D01*
X66065584Y-118874490D01*
X66065575Y-118874487D01*
X65889680Y-118839500D01*
X65889676Y-118839500D01*
X65710324Y-118839500D01*
X65710319Y-118839500D01*
X65534424Y-118874487D01*
X65534415Y-118874490D01*
X65368722Y-118943121D01*
X65368709Y-118943128D01*
X65219590Y-119042767D01*
X65219586Y-119042770D01*
X65092770Y-119169586D01*
X65092767Y-119169590D01*
X64993128Y-119318709D01*
X64993121Y-119318722D01*
X64924490Y-119484415D01*
X64924487Y-119484424D01*
X64889500Y-119660319D01*
X64889500Y-119839680D01*
X64924487Y-120015575D01*
X64924490Y-120015584D01*
X64993121Y-120181277D01*
X64993128Y-120181290D01*
X65092767Y-120330409D01*
X65092770Y-120330413D01*
X65219586Y-120457229D01*
X65219590Y-120457232D01*
X65368709Y-120556871D01*
X65368722Y-120556878D01*
X65492991Y-120608351D01*
X65534417Y-120625510D01*
X65534419Y-120625510D01*
X65534424Y-120625512D01*
X65710319Y-120660499D01*
X65710323Y-120660500D01*
X65710324Y-120660500D01*
X65889677Y-120660500D01*
X65889678Y-120660499D01*
X65948311Y-120648836D01*
X66065575Y-120625512D01*
X66065578Y-120625510D01*
X66065583Y-120625510D01*
X66231284Y-120556875D01*
X66380410Y-120457232D01*
X66507232Y-120330410D01*
X66606875Y-120181284D01*
X66608629Y-120177048D01*
X66652469Y-120122645D01*
X66718763Y-120100579D01*
X66723191Y-120100500D01*
X70193456Y-120100500D01*
X70260495Y-120120185D01*
X70281137Y-120136819D01*
X71123181Y-120978863D01*
X71156666Y-121040186D01*
X71159500Y-121066544D01*
X71159500Y-125024644D01*
X71139815Y-125091683D01*
X71087011Y-125137438D01*
X71082957Y-125139203D01*
X71077777Y-125141348D01*
X71077762Y-125141356D01*
X70928315Y-125241214D01*
X70928311Y-125241217D01*
X70801217Y-125368311D01*
X70801214Y-125368315D01*
X70701356Y-125517762D01*
X70701349Y-125517775D01*
X70632568Y-125683829D01*
X70632565Y-125683841D01*
X70597500Y-125860122D01*
X70597500Y-126039877D01*
X70632565Y-126216163D01*
X70632568Y-126216170D01*
X70634715Y-126221354D01*
X70642181Y-126290823D01*
X70610904Y-126353301D01*
X70607833Y-126356483D01*
X64244531Y-132719786D01*
X64244529Y-132719789D01*
X64220534Y-132761351D01*
X64220533Y-132761353D01*
X64198386Y-132799711D01*
X64189815Y-132831698D01*
X64174500Y-132888856D01*
X64174500Y-141871144D01*
X64181907Y-141898785D01*
X64198386Y-141960287D01*
X64198387Y-141960290D01*
X64244527Y-142040208D01*
X64244531Y-142040213D01*
X65498749Y-143294431D01*
X65532234Y-143355754D01*
X65527250Y-143425446D01*
X65525630Y-143429562D01*
X65516028Y-143452743D01*
X65516025Y-143452751D01*
X65479500Y-143636379D01*
X65479500Y-143823620D01*
X65516025Y-144007243D01*
X65516027Y-144007251D01*
X65587676Y-144180228D01*
X65587681Y-144180237D01*
X65691697Y-144335907D01*
X65691700Y-144335911D01*
X65824088Y-144468299D01*
X65824092Y-144468302D01*
X65979762Y-144572318D01*
X65979768Y-144572321D01*
X65979769Y-144572322D01*
X66152749Y-144643973D01*
X66226049Y-144658553D01*
X66328071Y-144678847D01*
X66389982Y-144711232D01*
X66424556Y-144771947D01*
X66420817Y-144841717D01*
X66379951Y-144898389D01*
X66314932Y-144923970D01*
X66303880Y-144924464D01*
X61476120Y-144924464D01*
X61409081Y-144904779D01*
X61363326Y-144851975D01*
X61353382Y-144782817D01*
X61382407Y-144719261D01*
X61441185Y-144681487D01*
X61451929Y-144678847D01*
X61536109Y-144662102D01*
X61627251Y-144643973D01*
X61800231Y-144572322D01*
X61955908Y-144468302D01*
X62088302Y-144335908D01*
X62192322Y-144180231D01*
X62263973Y-144007251D01*
X62300500Y-143823616D01*
X62300500Y-143636384D01*
X62263973Y-143452749D01*
X62254369Y-143429562D01*
X62246900Y-143360098D01*
X62278173Y-143297618D01*
X62281220Y-143294460D01*
X63535470Y-142040212D01*
X63581614Y-141960288D01*
X63605500Y-141871144D01*
X63605500Y-141778856D01*
X63605500Y-132888856D01*
X63581614Y-132799712D01*
X63559467Y-132761353D01*
X63535470Y-132719788D01*
X57172165Y-126356483D01*
X57138680Y-126295160D01*
X57143664Y-126225468D01*
X57145260Y-126221411D01*
X57147433Y-126216166D01*
X57182500Y-126039873D01*
X57182500Y-125860127D01*
X57182500Y-125860124D01*
X57182499Y-125860122D01*
X57161988Y-125757007D01*
X57147433Y-125683834D01*
X57130516Y-125642993D01*
X57078648Y-125517770D01*
X57078646Y-125517767D01*
X57040918Y-125461304D01*
X60449500Y-125461304D01*
X60449500Y-126438695D01*
X60484103Y-126612658D01*
X60484106Y-126612667D01*
X60551983Y-126776540D01*
X60551990Y-126776553D01*
X60650535Y-126924034D01*
X60650538Y-126924038D01*
X60775961Y-127049461D01*
X60775965Y-127049464D01*
X60923446Y-127148009D01*
X60923459Y-127148016D01*
X60962824Y-127164321D01*
X61087334Y-127215894D01*
X61087336Y-127215894D01*
X61087341Y-127215896D01*
X61261304Y-127250499D01*
X61261307Y-127250500D01*
X61261309Y-127250500D01*
X61438693Y-127250500D01*
X61438694Y-127250499D01*
X61496682Y-127238964D01*
X61612658Y-127215896D01*
X61612661Y-127215894D01*
X61612666Y-127215894D01*
X61776547Y-127148013D01*
X61924035Y-127049464D01*
X62049464Y-126924035D01*
X62148013Y-126776547D01*
X62215894Y-126612666D01*
X62232003Y-126531684D01*
X62250499Y-126438695D01*
X62250500Y-126438693D01*
X62250500Y-125461313D01*
X62250498Y-125461297D01*
X62248573Y-125451617D01*
X62640000Y-125451617D01*
X62640000Y-125700000D01*
X63456988Y-125700000D01*
X63424075Y-125757007D01*
X63390000Y-125884174D01*
X63390000Y-126015826D01*
X63424075Y-126142993D01*
X63456988Y-126200000D01*
X62640000Y-126200000D01*
X62640000Y-126448382D01*
X62670778Y-126642705D01*
X62731581Y-126829835D01*
X62820904Y-127005143D01*
X62936555Y-127164321D01*
X63075678Y-127303444D01*
X63234856Y-127419095D01*
X63410162Y-127508418D01*
X63597283Y-127569218D01*
X63640000Y-127575984D01*
X63640000Y-126383012D01*
X63697007Y-126415925D01*
X63824174Y-126450000D01*
X63955826Y-126450000D01*
X64082993Y-126415925D01*
X64140000Y-126383012D01*
X64140000Y-127575983D01*
X64182716Y-127569218D01*
X64369837Y-127508418D01*
X64545143Y-127419095D01*
X64704321Y-127303444D01*
X64843444Y-127164321D01*
X64959095Y-127005143D01*
X65048418Y-126829835D01*
X65109221Y-126642705D01*
X65140000Y-126448382D01*
X65140000Y-126200000D01*
X64323012Y-126200000D01*
X64355925Y-126142993D01*
X64390000Y-126015826D01*
X64390000Y-125884174D01*
X64355925Y-125757007D01*
X64323012Y-125700000D01*
X65140000Y-125700000D01*
X65140000Y-125451617D01*
X65109221Y-125257294D01*
X65048418Y-125070164D01*
X64959095Y-124894856D01*
X64843444Y-124735678D01*
X64704321Y-124596555D01*
X64545143Y-124480904D01*
X64369835Y-124391581D01*
X64182705Y-124330778D01*
X64140000Y-124324014D01*
X64140000Y-125516988D01*
X64082993Y-125484075D01*
X63955826Y-125450000D01*
X63824174Y-125450000D01*
X63697007Y-125484075D01*
X63640000Y-125516988D01*
X63640000Y-124324014D01*
X63639999Y-124324014D01*
X63597294Y-124330778D01*
X63410164Y-124391581D01*
X63234856Y-124480904D01*
X63075678Y-124596555D01*
X62936555Y-124735678D01*
X62820904Y-124894856D01*
X62731581Y-125070164D01*
X62670778Y-125257294D01*
X62640000Y-125451617D01*
X62248573Y-125451617D01*
X62215896Y-125287341D01*
X62215893Y-125287332D01*
X62148016Y-125123459D01*
X62148009Y-125123446D01*
X62049464Y-124975965D01*
X62049461Y-124975961D01*
X61924038Y-124850538D01*
X61924034Y-124850535D01*
X61776553Y-124751990D01*
X61776540Y-124751983D01*
X61612667Y-124684106D01*
X61612658Y-124684103D01*
X61438694Y-124649500D01*
X61438691Y-124649500D01*
X61261309Y-124649500D01*
X61261306Y-124649500D01*
X61087341Y-124684103D01*
X61087332Y-124684106D01*
X60923459Y-124751983D01*
X60923446Y-124751990D01*
X60775965Y-124850535D01*
X60775961Y-124850538D01*
X60650538Y-124975961D01*
X60650535Y-124975965D01*
X60551990Y-125123446D01*
X60551983Y-125123459D01*
X60484106Y-125287332D01*
X60484103Y-125287341D01*
X60449500Y-125461304D01*
X57040918Y-125461304D01*
X56978785Y-125368315D01*
X56978782Y-125368311D01*
X56851688Y-125241217D01*
X56851684Y-125241214D01*
X56702237Y-125141356D01*
X56702222Y-125141348D01*
X56697043Y-125139203D01*
X56642641Y-125095360D01*
X56620579Y-125029065D01*
X56620500Y-125024644D01*
X56620500Y-122190836D01*
X60730000Y-122190836D01*
X60730000Y-122389163D01*
X60761026Y-122585052D01*
X60822310Y-122773669D01*
X60822311Y-122773672D01*
X60912350Y-122950380D01*
X60939161Y-122987283D01*
X61610000Y-122316445D01*
X61610000Y-122340028D01*
X61635896Y-122436675D01*
X61685924Y-122523325D01*
X61756675Y-122594076D01*
X61843325Y-122644104D01*
X61939972Y-122670000D01*
X61963553Y-122670000D01*
X61292714Y-123340837D01*
X61292715Y-123340838D01*
X61329612Y-123367645D01*
X61506327Y-123457688D01*
X61506330Y-123457689D01*
X61694947Y-123518973D01*
X61890837Y-123550000D01*
X62089163Y-123550000D01*
X62285052Y-123518973D01*
X62473669Y-123457689D01*
X62473672Y-123457688D01*
X62650382Y-123367648D01*
X62687283Y-123340837D01*
X62687284Y-123340836D01*
X62016448Y-122670000D01*
X62040028Y-122670000D01*
X62136675Y-122644104D01*
X62223325Y-122594076D01*
X62294076Y-122523325D01*
X62344104Y-122436675D01*
X62370000Y-122340028D01*
X62370000Y-122316447D01*
X63040836Y-122987284D01*
X63040837Y-122987283D01*
X63067648Y-122950382D01*
X63157688Y-122773672D01*
X63157689Y-122773669D01*
X63218973Y-122585052D01*
X63250000Y-122389163D01*
X63250000Y-122200319D01*
X63619500Y-122200319D01*
X63619500Y-122379680D01*
X63654487Y-122555575D01*
X63654490Y-122555584D01*
X63723121Y-122721277D01*
X63723128Y-122721290D01*
X63822767Y-122870409D01*
X63822770Y-122870413D01*
X63949586Y-122997229D01*
X63949590Y-122997232D01*
X64098709Y-123096871D01*
X64098722Y-123096878D01*
X64222991Y-123148351D01*
X64264417Y-123165510D01*
X64264419Y-123165510D01*
X64264424Y-123165512D01*
X64421525Y-123196761D01*
X64483436Y-123229146D01*
X64485015Y-123230697D01*
X65700185Y-124445867D01*
X65733670Y-124507190D01*
X65728686Y-124576882D01*
X65686814Y-124632815D01*
X65636698Y-124655165D01*
X65621281Y-124658231D01*
X65621275Y-124658234D01*
X65571496Y-124691495D01*
X65571495Y-124691496D01*
X65538234Y-124741275D01*
X65538231Y-124741282D01*
X65529500Y-124785177D01*
X65529500Y-124785180D01*
X65529500Y-127114820D01*
X65529500Y-127114822D01*
X65529499Y-127114822D01*
X65538231Y-127158717D01*
X65538232Y-127158721D01*
X65538233Y-127158722D01*
X65571496Y-127208504D01*
X65621278Y-127241767D01*
X65621281Y-127241767D01*
X65621282Y-127241768D01*
X65665177Y-127250500D01*
X65665180Y-127250500D01*
X67194822Y-127250500D01*
X67238717Y-127241768D01*
X67238717Y-127241767D01*
X67238722Y-127241767D01*
X67288504Y-127208504D01*
X67321767Y-127158722D01*
X67330500Y-127114820D01*
X67330500Y-124785180D01*
X67330500Y-124785177D01*
X67321768Y-124741282D01*
X67321767Y-124741281D01*
X67321767Y-124741278D01*
X67288504Y-124691496D01*
X67277440Y-124684103D01*
X67238724Y-124658234D01*
X67238717Y-124658231D01*
X67194822Y-124649500D01*
X67194820Y-124649500D01*
X66879840Y-124649500D01*
X66812801Y-124629815D01*
X66767046Y-124577011D01*
X66760065Y-124557593D01*
X66756614Y-124544712D01*
X66710470Y-124464788D01*
X65260668Y-123014986D01*
X65227183Y-122953663D01*
X65232167Y-122883971D01*
X65245247Y-122858414D01*
X65336875Y-122721284D01*
X65405510Y-122555583D01*
X65440500Y-122379676D01*
X65440500Y-122200324D01*
X65411927Y-122056675D01*
X65405512Y-122024424D01*
X65405509Y-122024415D01*
X65336878Y-121858722D01*
X65336871Y-121858709D01*
X65305995Y-121812500D01*
X65263214Y-121748475D01*
X66159500Y-121748475D01*
X66159500Y-122831517D01*
X66167808Y-122883971D01*
X66174354Y-122925304D01*
X66231950Y-123038342D01*
X66231952Y-123038344D01*
X66231954Y-123038347D01*
X66321652Y-123128045D01*
X66321654Y-123128046D01*
X66321658Y-123128050D01*
X66434694Y-123185645D01*
X66434698Y-123185647D01*
X66528475Y-123200499D01*
X66528481Y-123200500D01*
X67611518Y-123200499D01*
X67705304Y-123185646D01*
X67818342Y-123128050D01*
X67908050Y-123038342D01*
X67965646Y-122925304D01*
X67965646Y-122925302D01*
X67965647Y-122925301D01*
X67980499Y-122831524D01*
X67980500Y-122831519D01*
X67980499Y-121748482D01*
X67965646Y-121654696D01*
X67908050Y-121541658D01*
X67908046Y-121541654D01*
X67908045Y-121541652D01*
X67818347Y-121451954D01*
X67818344Y-121451952D01*
X67818342Y-121451950D01*
X67741517Y-121412805D01*
X67705301Y-121394352D01*
X67611524Y-121379500D01*
X66528482Y-121379500D01*
X66447519Y-121392323D01*
X66434696Y-121394354D01*
X66321658Y-121451950D01*
X66321657Y-121451951D01*
X66321652Y-121451954D01*
X66231954Y-121541652D01*
X66231951Y-121541657D01*
X66174352Y-121654698D01*
X66159500Y-121748475D01*
X65263214Y-121748475D01*
X65237232Y-121709590D01*
X65237229Y-121709586D01*
X65110413Y-121582770D01*
X65110409Y-121582767D01*
X64961290Y-121483128D01*
X64961277Y-121483121D01*
X64795584Y-121414490D01*
X64795575Y-121414487D01*
X64619680Y-121379500D01*
X64619676Y-121379500D01*
X64440324Y-121379500D01*
X64440319Y-121379500D01*
X64264424Y-121414487D01*
X64264415Y-121414490D01*
X64098722Y-121483121D01*
X64098709Y-121483128D01*
X63949590Y-121582767D01*
X63949586Y-121582770D01*
X63822770Y-121709586D01*
X63822767Y-121709590D01*
X63723128Y-121858709D01*
X63723121Y-121858722D01*
X63654490Y-122024415D01*
X63654487Y-122024424D01*
X63619500Y-122200319D01*
X63250000Y-122200319D01*
X63250000Y-122190836D01*
X63218973Y-121994947D01*
X63157689Y-121806330D01*
X63157688Y-121806327D01*
X63067645Y-121629612D01*
X63040838Y-121592715D01*
X63040837Y-121592714D01*
X62370000Y-122263551D01*
X62370000Y-122239972D01*
X62344104Y-122143325D01*
X62294076Y-122056675D01*
X62223325Y-121985924D01*
X62136675Y-121935896D01*
X62040028Y-121910000D01*
X62016447Y-121910000D01*
X62687283Y-121239161D01*
X62650380Y-121212350D01*
X62473672Y-121122311D01*
X62473669Y-121122310D01*
X62285052Y-121061026D01*
X62089163Y-121030000D01*
X61890837Y-121030000D01*
X61694947Y-121061026D01*
X61506330Y-121122310D01*
X61506322Y-121122313D01*
X61329615Y-121212352D01*
X61292715Y-121239160D01*
X61292715Y-121239161D01*
X61963554Y-121910000D01*
X61939972Y-121910000D01*
X61843325Y-121935896D01*
X61756675Y-121985924D01*
X61685924Y-122056675D01*
X61635896Y-122143325D01*
X61610000Y-122239972D01*
X61610000Y-122263554D01*
X60939161Y-121592715D01*
X60939160Y-121592715D01*
X60912352Y-121629615D01*
X60822313Y-121806322D01*
X60822310Y-121806330D01*
X60761026Y-121994947D01*
X60730000Y-122190836D01*
X56620500Y-122190836D01*
X56620500Y-119796544D01*
X56640185Y-119729505D01*
X56656819Y-119708863D01*
X57648863Y-118716819D01*
X57710186Y-118683334D01*
X57736544Y-118680500D01*
X60299359Y-118680500D01*
X60366398Y-118700185D01*
X60412153Y-118752989D01*
X60422097Y-118822147D01*
X60393072Y-118885703D01*
X60346811Y-118919061D01*
X60288722Y-118943121D01*
X60288709Y-118943128D01*
X60139590Y-119042767D01*
X60139586Y-119042770D01*
X60012770Y-119169586D01*
X60012767Y-119169590D01*
X59913128Y-119318709D01*
X59913121Y-119318722D01*
X59844490Y-119484415D01*
X59844487Y-119484424D01*
X59809500Y-119660319D01*
X59809500Y-119839680D01*
X59844487Y-120015575D01*
X59844490Y-120015584D01*
X59913121Y-120181277D01*
X59913128Y-120181290D01*
X60012767Y-120330409D01*
X60012770Y-120330413D01*
X60139586Y-120457229D01*
X60139590Y-120457232D01*
X60288709Y-120556871D01*
X60288722Y-120556878D01*
X60412991Y-120608351D01*
X60454417Y-120625510D01*
X60454419Y-120625510D01*
X60454424Y-120625512D01*
X60630319Y-120660499D01*
X60630323Y-120660500D01*
X60630324Y-120660500D01*
X60809677Y-120660500D01*
X60809678Y-120660499D01*
X60868311Y-120648836D01*
X60985575Y-120625512D01*
X60985578Y-120625510D01*
X60985583Y-120625510D01*
X61151284Y-120556875D01*
X61300410Y-120457232D01*
X61427232Y-120330410D01*
X61526875Y-120181284D01*
X61595510Y-120015583D01*
X61630500Y-119839676D01*
X61630500Y-119660324D01*
X61630188Y-119658758D01*
X61595512Y-119484424D01*
X61595509Y-119484415D01*
X61526878Y-119318722D01*
X61526871Y-119318709D01*
X61427232Y-119169590D01*
X61427229Y-119169586D01*
X61300413Y-119042770D01*
X61300409Y-119042767D01*
X61151290Y-118943128D01*
X61151277Y-118943121D01*
X61093189Y-118919061D01*
X61038785Y-118875220D01*
X61016720Y-118808926D01*
X61033999Y-118741227D01*
X61085136Y-118693616D01*
X61140641Y-118680500D01*
X61643456Y-118680500D01*
X61710495Y-118700185D01*
X61731137Y-118716819D01*
X62359364Y-119345045D01*
X62392849Y-119406368D01*
X62387865Y-119476059D01*
X62386248Y-119480168D01*
X62384495Y-119484400D01*
X62384488Y-119484423D01*
X62349500Y-119660320D01*
X62349500Y-119839680D01*
X62384487Y-120015575D01*
X62384490Y-120015584D01*
X62453121Y-120181277D01*
X62453128Y-120181290D01*
X62552767Y-120330409D01*
X62552770Y-120330413D01*
X62679586Y-120457229D01*
X62679590Y-120457232D01*
X62828709Y-120556871D01*
X62828722Y-120556878D01*
X62952991Y-120608351D01*
X62994417Y-120625510D01*
X62994419Y-120625510D01*
X62994424Y-120625512D01*
X63170319Y-120660499D01*
X63170323Y-120660500D01*
X63170324Y-120660500D01*
X63349677Y-120660500D01*
X63349678Y-120660499D01*
X63408311Y-120648836D01*
X63525575Y-120625512D01*
X63525578Y-120625510D01*
X63525583Y-120625510D01*
X63691284Y-120556875D01*
X63840410Y-120457232D01*
X63967232Y-120330410D01*
X64066875Y-120181284D01*
X64135510Y-120015583D01*
X64170500Y-119839676D01*
X64170500Y-119660324D01*
X64170188Y-119658758D01*
X64135512Y-119484424D01*
X64135509Y-119484415D01*
X64066878Y-119318722D01*
X64066871Y-119318709D01*
X63967232Y-119169590D01*
X63967229Y-119169586D01*
X63840413Y-119042770D01*
X63840409Y-119042767D01*
X63691290Y-118943128D01*
X63691277Y-118943121D01*
X63525584Y-118874490D01*
X63525575Y-118874487D01*
X63349680Y-118839500D01*
X63349676Y-118839500D01*
X63170324Y-118839500D01*
X63170320Y-118839500D01*
X62994423Y-118874488D01*
X62994400Y-118874495D01*
X62990168Y-118876248D01*
X62920698Y-118883711D01*
X62858222Y-118852430D01*
X62855045Y-118849364D01*
X62055213Y-118049531D01*
X62055208Y-118049527D01*
X61975290Y-118003387D01*
X61975289Y-118003386D01*
X61975288Y-118003386D01*
X61886144Y-117979500D01*
X57493856Y-117979500D01*
X57404712Y-118003386D01*
X57404709Y-118003387D01*
X57324791Y-118049527D01*
X57324786Y-118049531D01*
X55989531Y-119384786D01*
X55989527Y-119384791D01*
X55943387Y-119464709D01*
X55943386Y-119464712D01*
X55919500Y-119553856D01*
X55919500Y-125024644D01*
X55899815Y-125091683D01*
X55847011Y-125137438D01*
X55842957Y-125139203D01*
X55837777Y-125141348D01*
X55837762Y-125141356D01*
X55688315Y-125241214D01*
X55688311Y-125241217D01*
X55561217Y-125368311D01*
X55561214Y-125368315D01*
X55461356Y-125517762D01*
X55461349Y-125517775D01*
X55392568Y-125683829D01*
X55392565Y-125683841D01*
X55357500Y-125860122D01*
X55357500Y-126039877D01*
X55392565Y-126216158D01*
X55392568Y-126216170D01*
X55461349Y-126382224D01*
X55461356Y-126382237D01*
X55561214Y-126531684D01*
X55561217Y-126531688D01*
X55688311Y-126658782D01*
X55688315Y-126658785D01*
X55837762Y-126758643D01*
X55837775Y-126758650D01*
X55980614Y-126817815D01*
X56003834Y-126827433D01*
X56112686Y-126849085D01*
X56180122Y-126862499D01*
X56180125Y-126862500D01*
X56180127Y-126862500D01*
X56359875Y-126862500D01*
X56359876Y-126862499D01*
X56536166Y-126827433D01*
X56541345Y-126825287D01*
X56610810Y-126817815D01*
X56673291Y-126849085D01*
X56676483Y-126852165D01*
X62868181Y-133043863D01*
X62901666Y-133105186D01*
X62904500Y-133131544D01*
X62904500Y-141628455D01*
X62884815Y-141695494D01*
X62868181Y-141716136D01*
X61785567Y-142798749D01*
X61724244Y-142832234D01*
X61654552Y-142827250D01*
X61650436Y-142825630D01*
X61627252Y-142816027D01*
X61627243Y-142816024D01*
X61443620Y-142779500D01*
X61443616Y-142779500D01*
X61256384Y-142779500D01*
X61256379Y-142779500D01*
X61072756Y-142816025D01*
X61072748Y-142816027D01*
X60899771Y-142887676D01*
X60899762Y-142887681D01*
X60744092Y-142991697D01*
X60744088Y-142991700D01*
X60611700Y-143124088D01*
X60611697Y-143124092D01*
X60507681Y-143279762D01*
X60507679Y-143279766D01*
X60507678Y-143279769D01*
X60498074Y-143302953D01*
X60454235Y-143357356D01*
X60387941Y-143379421D01*
X60383514Y-143379500D01*
X59722367Y-143379500D01*
X59655328Y-143359815D01*
X59611057Y-143308724D01*
X59610881Y-143308819D01*
X59610464Y-143308040D01*
X59609573Y-143307011D01*
X59608071Y-143303562D01*
X59608011Y-143303449D01*
X59509464Y-143155965D01*
X59509461Y-143155961D01*
X59384038Y-143030538D01*
X59384034Y-143030535D01*
X59236553Y-142931990D01*
X59236540Y-142931983D01*
X59072667Y-142864106D01*
X59072658Y-142864103D01*
X58898694Y-142829500D01*
X58898691Y-142829500D01*
X58721309Y-142829500D01*
X58721306Y-142829500D01*
X58547341Y-142864103D01*
X58547332Y-142864106D01*
X58383459Y-142931983D01*
X58383446Y-142931990D01*
X58235965Y-143030535D01*
X58235961Y-143030538D01*
X58110538Y-143155961D01*
X58110535Y-143155965D01*
X58011990Y-143303446D01*
X58011983Y-143303459D01*
X57944106Y-143467332D01*
X57944103Y-143467341D01*
X57909500Y-143641304D01*
X57909500Y-143818695D01*
X57944103Y-143992658D01*
X57944106Y-143992667D01*
X58011983Y-144156540D01*
X58011990Y-144156553D01*
X58110535Y-144304034D01*
X58110538Y-144304038D01*
X58235961Y-144429461D01*
X58235965Y-144429464D01*
X58383446Y-144528009D01*
X58383459Y-144528016D01*
X58490428Y-144572323D01*
X58547334Y-144595894D01*
X58547336Y-144595894D01*
X58547341Y-144595896D01*
X58721304Y-144630499D01*
X58721307Y-144630500D01*
X58721309Y-144630500D01*
X58898693Y-144630500D01*
X58898694Y-144630499D01*
X58956682Y-144618964D01*
X59072658Y-144595896D01*
X59072661Y-144595894D01*
X59072666Y-144595894D01*
X59236547Y-144528013D01*
X59384035Y-144429464D01*
X59509464Y-144304035D01*
X59608013Y-144156547D01*
X59608016Y-144156540D01*
X59610881Y-144151181D01*
X59612034Y-144151797D01*
X59651653Y-144102640D01*
X59717948Y-144080579D01*
X59722367Y-144080500D01*
X60383514Y-144080500D01*
X60450553Y-144100185D01*
X60496308Y-144152989D01*
X60498061Y-144157013D01*
X60504079Y-144171542D01*
X60507679Y-144180233D01*
X60507681Y-144180237D01*
X60611697Y-144335907D01*
X60611700Y-144335911D01*
X60744088Y-144468299D01*
X60744092Y-144468302D01*
X60899762Y-144572318D01*
X60899768Y-144572321D01*
X60899769Y-144572322D01*
X61072749Y-144643973D01*
X61146049Y-144658553D01*
X61248071Y-144678847D01*
X61309982Y-144711232D01*
X61344556Y-144771947D01*
X61340817Y-144841717D01*
X61299951Y-144898389D01*
X61234932Y-144923970D01*
X61223880Y-144924464D01*
X57004067Y-144924464D01*
X56995957Y-144924199D01*
X56756906Y-144908531D01*
X56740824Y-144906413D01*
X56732609Y-144904779D01*
X56718981Y-144902068D01*
X56687722Y-144891361D01*
X55671968Y-144383484D01*
X55620810Y-144335897D01*
X55616514Y-144328029D01*
X55604519Y-144304038D01*
X55108590Y-143312181D01*
X55097884Y-143280923D01*
X55093550Y-143259135D01*
X55091433Y-143243060D01*
X55075765Y-143004007D01*
X55075500Y-142995897D01*
X55075500Y-141100122D01*
X55357500Y-141100122D01*
X55357500Y-141279877D01*
X55392565Y-141456158D01*
X55392568Y-141456170D01*
X55461349Y-141622224D01*
X55461356Y-141622237D01*
X55561214Y-141771684D01*
X55561217Y-141771688D01*
X55688311Y-141898782D01*
X55688315Y-141898785D01*
X55837762Y-141998643D01*
X55837775Y-141998650D01*
X56003829Y-142067431D01*
X56003834Y-142067433D01*
X56180122Y-142102499D01*
X56180125Y-142102500D01*
X56180127Y-142102500D01*
X56359875Y-142102500D01*
X56359876Y-142102499D01*
X56536166Y-142067433D01*
X56702231Y-141998647D01*
X56851685Y-141898785D01*
X56978785Y-141771685D01*
X57078647Y-141622231D01*
X57147433Y-141456166D01*
X57182500Y-141279873D01*
X57182500Y-141100127D01*
X57182500Y-141100124D01*
X57182499Y-141100122D01*
X57147434Y-140923841D01*
X57147433Y-140923834D01*
X57147431Y-140923829D01*
X57078650Y-140757775D01*
X57078643Y-140757762D01*
X56978785Y-140608315D01*
X56978782Y-140608311D01*
X56851688Y-140481217D01*
X56851684Y-140481214D01*
X56702237Y-140381356D01*
X56702224Y-140381349D01*
X56536170Y-140312568D01*
X56536158Y-140312565D01*
X56359876Y-140277500D01*
X56359873Y-140277500D01*
X56180127Y-140277500D01*
X56180124Y-140277500D01*
X56003841Y-140312565D01*
X56003829Y-140312568D01*
X55837775Y-140381349D01*
X55837762Y-140381356D01*
X55688315Y-140481214D01*
X55688311Y-140481217D01*
X55561217Y-140608311D01*
X55561214Y-140608315D01*
X55461356Y-140757762D01*
X55461349Y-140757775D01*
X55392568Y-140923829D01*
X55392565Y-140923841D01*
X55357500Y-141100122D01*
X55075500Y-141100122D01*
X55075500Y-139471664D01*
X55095185Y-139404625D01*
X55147989Y-139358870D01*
X55209230Y-139348046D01*
X55217731Y-139348715D01*
X55832352Y-138734094D01*
X55855792Y-138821571D01*
X55914311Y-138922930D01*
X55997070Y-139005689D01*
X56098429Y-139064208D01*
X56185905Y-139087647D01*
X55571283Y-139702268D01*
X55571283Y-139702269D01*
X55608567Y-139729358D01*
X55785562Y-139819542D01*
X55974477Y-139880924D01*
X56170679Y-139912000D01*
X56369321Y-139912000D01*
X56565520Y-139880924D01*
X56565523Y-139880924D01*
X56754437Y-139819542D01*
X56931425Y-139729362D01*
X56968716Y-139702268D01*
X56354095Y-139087647D01*
X56441571Y-139064208D01*
X56542930Y-139005689D01*
X56625689Y-138922930D01*
X56684208Y-138821571D01*
X56707647Y-138734094D01*
X57322268Y-139348715D01*
X57349362Y-139311425D01*
X57439542Y-139134437D01*
X57500924Y-138945523D01*
X57500924Y-138945520D01*
X57532000Y-138749321D01*
X57532000Y-138550678D01*
X57500924Y-138354479D01*
X57500924Y-138354476D01*
X57439542Y-138165562D01*
X57349358Y-137988567D01*
X57322268Y-137951283D01*
X56707647Y-138565904D01*
X56684208Y-138478429D01*
X56625689Y-138377070D01*
X56542930Y-138294311D01*
X56441571Y-138235792D01*
X56354094Y-138212352D01*
X56968716Y-137597731D01*
X56968715Y-137597730D01*
X56931432Y-137570641D01*
X56754437Y-137480457D01*
X56565522Y-137419075D01*
X56369321Y-137388000D01*
X56170679Y-137388000D01*
X55974479Y-137419075D01*
X55974476Y-137419075D01*
X55785562Y-137480457D01*
X55608564Y-137570643D01*
X55571283Y-137597729D01*
X55571282Y-137597730D01*
X56185906Y-138212352D01*
X56098429Y-138235792D01*
X55997070Y-138294311D01*
X55914311Y-138377070D01*
X55855792Y-138478429D01*
X55832352Y-138565905D01*
X55217730Y-137951282D01*
X55209229Y-137951952D01*
X55195618Y-137949092D01*
X55181853Y-137951072D01*
X55162102Y-137942052D01*
X55140851Y-137937588D01*
X55130946Y-137927823D01*
X55118297Y-137922047D01*
X55106557Y-137903779D01*
X55091095Y-137888536D01*
X55087268Y-137873765D01*
X55080523Y-137863269D01*
X55075500Y-137828334D01*
X55075500Y-136020122D01*
X55357500Y-136020122D01*
X55357500Y-136199877D01*
X55392565Y-136376158D01*
X55392568Y-136376170D01*
X55461349Y-136542224D01*
X55461356Y-136542237D01*
X55561214Y-136691684D01*
X55561217Y-136691688D01*
X55688311Y-136818782D01*
X55688315Y-136818785D01*
X55837762Y-136918643D01*
X55837775Y-136918650D01*
X56003829Y-136987431D01*
X56003834Y-136987433D01*
X56180122Y-137022499D01*
X56180125Y-137022500D01*
X56180127Y-137022500D01*
X56359875Y-137022500D01*
X56359876Y-137022499D01*
X56536166Y-136987433D01*
X56702231Y-136918647D01*
X56851685Y-136818785D01*
X56978785Y-136691685D01*
X57078647Y-136542231D01*
X57147433Y-136376166D01*
X57182500Y-136199873D01*
X57182500Y-136020127D01*
X57182500Y-136020124D01*
X57182499Y-136020122D01*
X57147434Y-135843841D01*
X57147433Y-135843834D01*
X57147431Y-135843829D01*
X57078650Y-135677775D01*
X57078643Y-135677762D01*
X56978785Y-135528315D01*
X56978782Y-135528311D01*
X56851688Y-135401217D01*
X56851684Y-135401214D01*
X56702237Y-135301356D01*
X56702224Y-135301349D01*
X56536170Y-135232568D01*
X56536158Y-135232565D01*
X56359876Y-135197500D01*
X56359873Y-135197500D01*
X56180127Y-135197500D01*
X56180124Y-135197500D01*
X56003841Y-135232565D01*
X56003829Y-135232568D01*
X55837775Y-135301349D01*
X55837762Y-135301356D01*
X55688315Y-135401214D01*
X55688311Y-135401217D01*
X55561217Y-135528311D01*
X55561214Y-135528315D01*
X55461356Y-135677762D01*
X55461349Y-135677775D01*
X55392568Y-135843829D01*
X55392565Y-135843841D01*
X55357500Y-136020122D01*
X55075500Y-136020122D01*
X55075500Y-133480122D01*
X55357500Y-133480122D01*
X55357500Y-133659877D01*
X55392565Y-133836158D01*
X55392568Y-133836170D01*
X55461349Y-134002224D01*
X55461356Y-134002237D01*
X55561214Y-134151684D01*
X55561217Y-134151688D01*
X55688311Y-134278782D01*
X55688315Y-134278785D01*
X55837762Y-134378643D01*
X55837775Y-134378650D01*
X55919070Y-134412323D01*
X56003834Y-134447433D01*
X56180122Y-134482499D01*
X56180125Y-134482500D01*
X56180127Y-134482500D01*
X56359875Y-134482500D01*
X56359876Y-134482499D01*
X56536166Y-134447433D01*
X56702231Y-134378647D01*
X56851685Y-134278785D01*
X56978785Y-134151685D01*
X57078647Y-134002231D01*
X57147433Y-133836166D01*
X57182500Y-133659873D01*
X57182500Y-133480127D01*
X57182500Y-133480124D01*
X57182499Y-133480122D01*
X57147434Y-133303841D01*
X57147433Y-133303834D01*
X57142844Y-133292756D01*
X57078650Y-133137775D01*
X57078643Y-133137762D01*
X56978785Y-132988315D01*
X56978782Y-132988311D01*
X56851688Y-132861217D01*
X56851684Y-132861214D01*
X56702237Y-132761356D01*
X56702224Y-132761349D01*
X56536170Y-132692568D01*
X56536158Y-132692565D01*
X56359876Y-132657500D01*
X56359873Y-132657500D01*
X56180127Y-132657500D01*
X56180124Y-132657500D01*
X56003841Y-132692565D01*
X56003829Y-132692568D01*
X55837775Y-132761349D01*
X55837762Y-132761356D01*
X55688315Y-132861214D01*
X55688311Y-132861217D01*
X55561217Y-132988311D01*
X55561214Y-132988315D01*
X55461356Y-133137762D01*
X55461349Y-133137775D01*
X55392568Y-133303829D01*
X55392565Y-133303841D01*
X55357500Y-133480122D01*
X55075500Y-133480122D01*
X55075500Y-130940122D01*
X55357500Y-130940122D01*
X55357500Y-131119877D01*
X55392565Y-131296158D01*
X55392568Y-131296170D01*
X55461349Y-131462224D01*
X55461356Y-131462237D01*
X55561214Y-131611684D01*
X55561217Y-131611688D01*
X55688311Y-131738782D01*
X55688315Y-131738785D01*
X55837762Y-131838643D01*
X55837775Y-131838650D01*
X56003829Y-131907431D01*
X56003834Y-131907433D01*
X56180122Y-131942499D01*
X56180125Y-131942500D01*
X56180127Y-131942500D01*
X56359875Y-131942500D01*
X56359876Y-131942499D01*
X56536166Y-131907433D01*
X56702231Y-131838647D01*
X56851685Y-131738785D01*
X56978785Y-131611685D01*
X57078647Y-131462231D01*
X57147433Y-131296166D01*
X57182500Y-131119873D01*
X57182500Y-130940127D01*
X57182500Y-130940124D01*
X57182499Y-130940122D01*
X57157568Y-130814786D01*
X57147433Y-130763834D01*
X57147431Y-130763829D01*
X57078650Y-130597775D01*
X57078643Y-130597762D01*
X56978785Y-130448315D01*
X56978782Y-130448311D01*
X56851688Y-130321217D01*
X56851684Y-130321214D01*
X56702237Y-130221356D01*
X56702224Y-130221349D01*
X56536170Y-130152568D01*
X56536158Y-130152565D01*
X56359876Y-130117500D01*
X56359873Y-130117500D01*
X56180127Y-130117500D01*
X56180124Y-130117500D01*
X56003841Y-130152565D01*
X56003829Y-130152568D01*
X55837775Y-130221349D01*
X55837762Y-130221356D01*
X55688315Y-130321214D01*
X55688311Y-130321217D01*
X55561217Y-130448311D01*
X55561214Y-130448315D01*
X55461356Y-130597762D01*
X55461349Y-130597775D01*
X55392568Y-130763829D01*
X55392565Y-130763841D01*
X55357500Y-130940122D01*
X55075500Y-130940122D01*
X55075500Y-128400122D01*
X55357500Y-128400122D01*
X55357500Y-128579877D01*
X55392565Y-128756158D01*
X55392568Y-128756170D01*
X55461349Y-128922224D01*
X55461356Y-128922237D01*
X55561214Y-129071684D01*
X55561217Y-129071688D01*
X55688311Y-129198782D01*
X55688315Y-129198785D01*
X55837762Y-129298643D01*
X55837775Y-129298650D01*
X55980614Y-129357815D01*
X56003834Y-129367433D01*
X56112686Y-129389085D01*
X56180122Y-129402499D01*
X56180125Y-129402500D01*
X56180127Y-129402500D01*
X56359875Y-129402500D01*
X56359876Y-129402499D01*
X56536166Y-129367433D01*
X56541345Y-129365287D01*
X56610810Y-129357815D01*
X56673291Y-129389085D01*
X56676483Y-129392165D01*
X58423181Y-131138863D01*
X58456666Y-131200186D01*
X58459500Y-131226544D01*
X58459500Y-135085500D01*
X58439815Y-135152539D01*
X58387011Y-135198294D01*
X58335500Y-135209500D01*
X58278477Y-135209500D01*
X58184701Y-135224352D01*
X58071656Y-135281951D01*
X58071652Y-135281954D01*
X57981954Y-135371652D01*
X57981951Y-135371656D01*
X57924352Y-135484701D01*
X57909500Y-135578476D01*
X57909500Y-136641523D01*
X57924352Y-136735298D01*
X57924353Y-136735301D01*
X57924354Y-136735303D01*
X57981950Y-136848342D01*
X57981951Y-136848343D01*
X57981954Y-136848347D01*
X58071652Y-136938045D01*
X58071656Y-136938048D01*
X58071658Y-136938050D01*
X58184697Y-136995646D01*
X58184699Y-136995646D01*
X58184701Y-136995647D01*
X58278477Y-137010500D01*
X58278482Y-137010500D01*
X59341523Y-137010500D01*
X59435298Y-136995647D01*
X59435298Y-136995646D01*
X59435303Y-136995646D01*
X59548342Y-136938050D01*
X59638050Y-136848342D01*
X59695646Y-136735303D01*
X59702554Y-136691688D01*
X59710500Y-136641523D01*
X59710500Y-135578476D01*
X59695647Y-135484701D01*
X59695646Y-135484699D01*
X59695646Y-135484697D01*
X59638050Y-135371658D01*
X59638048Y-135371656D01*
X59638045Y-135371652D01*
X59548347Y-135281954D01*
X59548343Y-135281951D01*
X59548342Y-135281950D01*
X59435303Y-135224354D01*
X59435301Y-135224353D01*
X59435298Y-135224352D01*
X59341523Y-135209500D01*
X59341518Y-135209500D01*
X59284500Y-135209500D01*
X59217461Y-135189815D01*
X59171706Y-135137011D01*
X59160500Y-135085500D01*
X59160500Y-134044500D01*
X59180185Y-133977461D01*
X59232989Y-133931706D01*
X59284500Y-133920500D01*
X60383514Y-133920500D01*
X60450553Y-133940185D01*
X60496308Y-133992989D01*
X60498061Y-133997013D01*
X60500225Y-134002237D01*
X60507679Y-134020233D01*
X60507681Y-134020237D01*
X60611697Y-134175907D01*
X60611700Y-134175911D01*
X60744088Y-134308299D01*
X60744092Y-134308302D01*
X60899762Y-134412318D01*
X60899768Y-134412321D01*
X60899769Y-134412322D01*
X61072749Y-134483973D01*
X61256379Y-134520499D01*
X61256383Y-134520500D01*
X61256384Y-134520500D01*
X61443617Y-134520500D01*
X61443618Y-134520499D01*
X61627251Y-134483973D01*
X61800231Y-134412322D01*
X61955908Y-134308302D01*
X62088302Y-134175908D01*
X62192322Y-134020231D01*
X62263973Y-133847251D01*
X62300500Y-133663616D01*
X62300500Y-133476384D01*
X62263973Y-133292749D01*
X62199775Y-133137762D01*
X62192323Y-133119771D01*
X62192318Y-133119762D01*
X62088302Y-132964092D01*
X62088299Y-132964088D01*
X61955911Y-132831700D01*
X61955907Y-132831697D01*
X61800237Y-132727681D01*
X61800228Y-132727676D01*
X61627251Y-132656027D01*
X61627243Y-132656025D01*
X61443620Y-132619500D01*
X61443616Y-132619500D01*
X61256384Y-132619500D01*
X61256379Y-132619500D01*
X61072756Y-132656025D01*
X61072748Y-132656027D01*
X60899771Y-132727676D01*
X60899762Y-132727681D01*
X60744092Y-132831697D01*
X60744088Y-132831700D01*
X60611700Y-132964088D01*
X60611697Y-132964092D01*
X60507681Y-133119762D01*
X60507679Y-133119766D01*
X60507678Y-133119769D01*
X60498074Y-133142953D01*
X60454235Y-133197356D01*
X60387941Y-133219421D01*
X60383514Y-133219500D01*
X59284500Y-133219500D01*
X59217461Y-133199815D01*
X59171706Y-133147011D01*
X59160500Y-133095500D01*
X59160500Y-130983858D01*
X59160500Y-130983856D01*
X59136614Y-130894712D01*
X59090469Y-130814787D01*
X57172165Y-128896483D01*
X57138680Y-128835160D01*
X57143664Y-128765468D01*
X57145260Y-128761411D01*
X57147433Y-128756166D01*
X57182500Y-128579873D01*
X57182500Y-128400127D01*
X57182500Y-128400124D01*
X57182499Y-128400122D01*
X57147434Y-128223841D01*
X57147433Y-128223834D01*
X57147431Y-128223829D01*
X57078650Y-128057775D01*
X57078643Y-128057762D01*
X56978785Y-127908315D01*
X56978782Y-127908311D01*
X56851688Y-127781217D01*
X56851684Y-127781214D01*
X56702237Y-127681356D01*
X56702224Y-127681349D01*
X56536170Y-127612568D01*
X56536158Y-127612565D01*
X56359876Y-127577500D01*
X56359873Y-127577500D01*
X56180127Y-127577500D01*
X56180124Y-127577500D01*
X56003841Y-127612565D01*
X56003829Y-127612568D01*
X55837775Y-127681349D01*
X55837762Y-127681356D01*
X55688315Y-127781214D01*
X55688311Y-127781217D01*
X55561217Y-127908311D01*
X55561214Y-127908315D01*
X55461356Y-128057762D01*
X55461349Y-128057775D01*
X55392568Y-128223829D01*
X55392565Y-128223841D01*
X55357500Y-128400122D01*
X55075500Y-128400122D01*
X55075500Y-113272070D01*
X57184500Y-113272070D01*
X57184500Y-113527929D01*
X57224526Y-113780640D01*
X57303588Y-114023972D01*
X57303589Y-114023975D01*
X57419750Y-114251950D01*
X57570132Y-114458935D01*
X57570136Y-114458940D01*
X57751059Y-114639863D01*
X57751064Y-114639867D01*
X57931607Y-114771038D01*
X57958053Y-114790252D01*
X58107080Y-114866185D01*
X58186024Y-114906410D01*
X58186027Y-114906411D01*
X58307693Y-114945942D01*
X58429361Y-114985474D01*
X58682070Y-115025500D01*
X58682071Y-115025500D01*
X58937929Y-115025500D01*
X58937930Y-115025500D01*
X59190639Y-114985474D01*
X59433975Y-114906410D01*
X59661947Y-114790252D01*
X59868942Y-114639862D01*
X60049862Y-114458942D01*
X60200252Y-114251947D01*
X60316410Y-114023975D01*
X60395474Y-113780639D01*
X60435500Y-113527930D01*
X60435500Y-113272070D01*
X67344500Y-113272070D01*
X67344500Y-113527929D01*
X67384526Y-113780640D01*
X67463588Y-114023972D01*
X67463589Y-114023975D01*
X67579750Y-114251950D01*
X67730132Y-114458935D01*
X67730136Y-114458940D01*
X67911059Y-114639863D01*
X67911064Y-114639867D01*
X68091607Y-114771038D01*
X68118053Y-114790252D01*
X68267080Y-114866185D01*
X68346024Y-114906410D01*
X68346027Y-114906411D01*
X68467693Y-114945942D01*
X68589361Y-114985474D01*
X68842070Y-115025500D01*
X68842071Y-115025500D01*
X69097929Y-115025500D01*
X69097930Y-115025500D01*
X69350639Y-114985474D01*
X69593975Y-114906410D01*
X69821947Y-114790252D01*
X70028942Y-114639862D01*
X70209862Y-114458942D01*
X70360252Y-114251947D01*
X70476410Y-114023975D01*
X70555474Y-113780639D01*
X70595500Y-113527930D01*
X70595500Y-113272070D01*
X70555474Y-113019361D01*
X70476410Y-112776025D01*
X70476410Y-112776024D01*
X70436185Y-112697080D01*
X70360252Y-112548053D01*
X70341038Y-112521607D01*
X70209867Y-112341064D01*
X70209863Y-112341059D01*
X70028940Y-112160136D01*
X70028935Y-112160132D01*
X69821950Y-112009750D01*
X69821949Y-112009749D01*
X69821947Y-112009748D01*
X69748910Y-111972533D01*
X69593975Y-111893589D01*
X69593972Y-111893588D01*
X69350640Y-111814526D01*
X69224284Y-111794513D01*
X69097930Y-111774500D01*
X68842070Y-111774500D01*
X68757833Y-111787842D01*
X68589359Y-111814526D01*
X68346027Y-111893588D01*
X68346024Y-111893589D01*
X68118049Y-112009750D01*
X67911064Y-112160132D01*
X67911059Y-112160136D01*
X67730136Y-112341059D01*
X67730132Y-112341064D01*
X67579750Y-112548049D01*
X67463589Y-112776024D01*
X67463588Y-112776027D01*
X67384526Y-113019359D01*
X67344500Y-113272070D01*
X60435500Y-113272070D01*
X60395474Y-113019361D01*
X60316410Y-112776025D01*
X60316410Y-112776024D01*
X60276185Y-112697080D01*
X60200252Y-112548053D01*
X60181038Y-112521607D01*
X60049867Y-112341064D01*
X60049863Y-112341059D01*
X59868940Y-112160136D01*
X59868935Y-112160132D01*
X59661950Y-112009750D01*
X59661949Y-112009749D01*
X59661947Y-112009748D01*
X59588910Y-111972533D01*
X59433975Y-111893589D01*
X59433972Y-111893588D01*
X59190640Y-111814526D01*
X59064284Y-111794513D01*
X58937930Y-111774500D01*
X58682070Y-111774500D01*
X58597833Y-111787842D01*
X58429359Y-111814526D01*
X58186027Y-111893588D01*
X58186024Y-111893589D01*
X57958049Y-112009750D01*
X57751064Y-112160132D01*
X57751059Y-112160136D01*
X57570136Y-112341059D01*
X57570132Y-112341064D01*
X57419750Y-112548049D01*
X57303589Y-112776024D01*
X57303588Y-112776027D01*
X57224526Y-113019359D01*
X57184500Y-113272070D01*
X55075500Y-113272070D01*
X55075500Y-111444030D01*
X55075765Y-111435920D01*
X55084416Y-111303929D01*
X55091433Y-111196870D01*
X55093547Y-111180802D01*
X55097861Y-111159118D01*
X55108564Y-111127869D01*
X55616518Y-110111963D01*
X55664101Y-110060810D01*
X55671937Y-110056531D01*
X56687961Y-109548518D01*
X56719214Y-109537813D01*
X56740840Y-109533511D01*
X56756903Y-109531397D01*
X56964270Y-109517805D01*
X56995958Y-109515729D01*
X57004067Y-109515464D01*
X57024531Y-109515464D01*
X70755469Y-109515464D01*
X70775933Y-109515464D01*
X70784042Y-109515729D01*
G37*
%TD.AperFunction*%
%TD*%
M02*
