M48
; DRILL file KiCad 10.0.4+b1 date 2026-08-03T18:47:30
; FORMAT={-:-/ absolute / metric / decimal}
; #@! TF.CreationDate,2026-08-03T18:47:30+02:00
; #@! TF.GenerationSoftware,Kicad,Pcbnew,10.0.4+b1
; #@! TF.FileFunction,Plated,1,2,PTH
FMAT,2
METRIC
; #@! TA.AperFunction,Plated,PTH,ComponentDrill
T1C0.750
; #@! TA.AperFunction,Plated,PTH,ComponentDrill
T2C0.760
; #@! TA.AperFunction,Plated,PTH,ComponentDrill
T3C0.800
; #@! TA.AperFunction,Plated,PTH,ComponentDrill
T4C0.889
; #@! TA.AperFunction,Plated,PTH,ComponentDrill
T5C1.000
%
G90
G05
T1
X58.81Y-136.11
X58.81Y-143.73
X68.97Y-136.11
X68.97Y-143.73
T2
X60.72Y-119.75
X61.99Y-122.29
X63.26Y-119.75
X64.53Y-122.29
X65.8Y-119.75
X67.07Y-122.29
T3
X61.35Y-133.57
X61.35Y-143.73
X66.43Y-133.57
X66.43Y-143.73
T4
X56.27Y-125.95
X56.27Y-128.49
X56.27Y-131.03
X56.27Y-133.57
X56.27Y-136.11
X56.27Y-138.65
X56.27Y-141.19
X71.51Y-125.95
X71.51Y-128.49
X71.51Y-131.03
X71.51Y-133.57
X71.51Y-136.11
X71.51Y-138.65
X71.51Y-141.19
T5
X61.35Y-125.95
X63.89Y-125.95
X66.43Y-125.95
M30
