%TF.GenerationSoftware,KiCad,Pcbnew,10.0.5+dfsg-1*%
%TF.CreationDate,2026-09-03T22:37:27+02:00*%
%TF.ProjectId,blesyn,626c6573-796e-42e6-9b69-6361645f7063,1.1*%
%TF.SameCoordinates,Original*%
%TF.FileFunction,Legend,Top*%
%TF.FilePolarity,Positive*%
%FSLAX46Y46*%
G04 Gerber Fmt 4.6, Leading zero omitted, Abs format (unit mm)*
G04 Created by KiCad (PCBNEW 10.0.5+dfsg-1) date 2026-09-03 22:37:27*
%MOMM*%
%LPD*%
G01*
G04 APERTURE LIST*
G04 Aperture macros list*
%AMRoundRect*
0 Rectangle with rounded corners*
0 $1 Rounding radius*
0 $2 $3 $4 $5 $6 $7 $8 $9 X,Y pos of 4 corners*
0 Add a 4 corners polygon primitive as box body*
4,1,4,$2,$3,$4,$5,$6,$7,$8,$9,$2,$3,0*
0 Add four circle primitives for the rounded corners*
1,1,$1+$1,$2,$3*
1,1,$1+$1,$4,$5*
1,1,$1+$1,$6,$7*
1,1,$1+$1,$8,$9*
0 Add four rect primitives between the rounded corners*
20,1,$1+$1,$2,$3,$4,$5,0*
20,1,$1+$1,$4,$5,$6,$7,0*
20,1,$1+$1,$6,$7,$8,$9,0*
20,1,$1+$1,$8,$9,$2,$3,0*%
G04 Aperture macros list end*
%ADD10C,0.150000*%
%ADD11C,0.120000*%
%ADD12C,0.100000*%
%ADD13C,0.127000*%
%ADD14C,0.504000*%
%ADD15RoundRect,0.250001X-0.499999X0.499999X-0.499999X-0.499999X0.499999X-0.499999X0.499999X0.499999X0*%
%ADD16C,1.500000*%
%ADD17C,1.600000*%
%ADD18RoundRect,0.152400X-1.063600X-0.609600X1.063600X-0.609600X1.063600X0.609600X-1.063600X0.609600X0*%
%ADD19C,1.524000*%
%ADD20RoundRect,0.152400X1.063600X0.609600X-1.063600X0.609600X-1.063600X-0.609600X1.063600X-0.609600X0*%
%ADD21R,1.500000X2.300000*%
%ADD22O,1.500000X2.300000*%
%ADD23C,3.250000*%
%ADD24RoundRect,0.250000X0.510000X0.510000X-0.510000X0.510000X-0.510000X-0.510000X0.510000X-0.510000X0*%
%ADD25C,1.520000*%
G04 APERTURE END LIST*
D10*
X57486819Y-143706094D02*
X56486819Y-143706094D01*
X56486819Y-143706094D02*
X56486819Y-143467999D01*
X56486819Y-143467999D02*
X56534438Y-143325142D01*
X56534438Y-143325142D02*
X56629676Y-143229904D01*
X56629676Y-143229904D02*
X56724914Y-143182285D01*
X56724914Y-143182285D02*
X56915390Y-143134666D01*
X56915390Y-143134666D02*
X57058247Y-143134666D01*
X57058247Y-143134666D02*
X57248723Y-143182285D01*
X57248723Y-143182285D02*
X57343961Y-143229904D01*
X57343961Y-143229904D02*
X57439200Y-143325142D01*
X57439200Y-143325142D02*
X57486819Y-143467999D01*
X57486819Y-143467999D02*
X57486819Y-143706094D01*
X57486819Y-142182285D02*
X57486819Y-142753713D01*
X57486819Y-142467999D02*
X56486819Y-142467999D01*
X56486819Y-142467999D02*
X56629676Y-142563237D01*
X56629676Y-142563237D02*
X56724914Y-142658475D01*
X56724914Y-142658475D02*
X56772533Y-142753713D01*
X59264819Y-134847904D02*
X58264819Y-134847904D01*
X59264819Y-134276476D02*
X58693390Y-134705047D01*
X58264819Y-134276476D02*
X58836247Y-134847904D01*
X65106819Y-143134666D02*
X64630628Y-143467999D01*
X65106819Y-143706094D02*
X64106819Y-143706094D01*
X64106819Y-143706094D02*
X64106819Y-143325142D01*
X64106819Y-143325142D02*
X64154438Y-143229904D01*
X64154438Y-143229904D02*
X64202057Y-143182285D01*
X64202057Y-143182285D02*
X64297295Y-143134666D01*
X64297295Y-143134666D02*
X64440152Y-143134666D01*
X64440152Y-143134666D02*
X64535390Y-143182285D01*
X64535390Y-143182285D02*
X64583009Y-143229904D01*
X64583009Y-143229904D02*
X64630628Y-143325142D01*
X64630628Y-143325142D02*
X64630628Y-143706094D01*
X64202057Y-142753713D02*
X64154438Y-142706094D01*
X64154438Y-142706094D02*
X64106819Y-142610856D01*
X64106819Y-142610856D02*
X64106819Y-142372761D01*
X64106819Y-142372761D02*
X64154438Y-142277523D01*
X64154438Y-142277523D02*
X64202057Y-142229904D01*
X64202057Y-142229904D02*
X64297295Y-142182285D01*
X64297295Y-142182285D02*
X64392533Y-142182285D01*
X64392533Y-142182285D02*
X64535390Y-142229904D01*
X64535390Y-142229904D02*
X65106819Y-142801332D01*
X65106819Y-142801332D02*
X65106819Y-142182285D01*
X63582819Y-143134666D02*
X63106628Y-143467999D01*
X63582819Y-143706094D02*
X62582819Y-143706094D01*
X62582819Y-143706094D02*
X62582819Y-143325142D01*
X62582819Y-143325142D02*
X62630438Y-143229904D01*
X62630438Y-143229904D02*
X62678057Y-143182285D01*
X62678057Y-143182285D02*
X62773295Y-143134666D01*
X62773295Y-143134666D02*
X62916152Y-143134666D01*
X62916152Y-143134666D02*
X63011390Y-143182285D01*
X63011390Y-143182285D02*
X63059009Y-143229904D01*
X63059009Y-143229904D02*
X63106628Y-143325142D01*
X63106628Y-143325142D02*
X63106628Y-143706094D01*
X63582819Y-142182285D02*
X63582819Y-142753713D01*
X63582819Y-142467999D02*
X62582819Y-142467999D01*
X62582819Y-142467999D02*
X62725676Y-142563237D01*
X62725676Y-142563237D02*
X62820914Y-142658475D01*
X62820914Y-142658475D02*
X62868533Y-142753713D01*
X55254095Y-121848819D02*
X55254095Y-122658342D01*
X55254095Y-122658342D02*
X55301714Y-122753580D01*
X55301714Y-122753580D02*
X55349333Y-122801200D01*
X55349333Y-122801200D02*
X55444571Y-122848819D01*
X55444571Y-122848819D02*
X55635047Y-122848819D01*
X55635047Y-122848819D02*
X55730285Y-122801200D01*
X55730285Y-122801200D02*
X55777904Y-122753580D01*
X55777904Y-122753580D02*
X55825523Y-122658342D01*
X55825523Y-122658342D02*
X55825523Y-121848819D01*
X56825523Y-122848819D02*
X56254095Y-122848819D01*
X56539809Y-122848819D02*
X56539809Y-121848819D01*
X56539809Y-121848819D02*
X56444571Y-121991676D01*
X56444571Y-121991676D02*
X56349333Y-122086914D01*
X56349333Y-122086914D02*
X56254095Y-122134533D01*
X53005180Y-127474762D02*
X52005180Y-128141428D01*
X53005180Y-128141428D02*
X52005180Y-127474762D01*
X52005180Y-128522381D02*
X53005180Y-128522381D01*
X52290895Y-128950952D02*
X52290895Y-129427142D01*
X52005180Y-128855714D02*
X53005180Y-129189047D01*
X53005180Y-129189047D02*
X52005180Y-129522380D01*
X53005180Y-130046190D02*
X53005180Y-130236666D01*
X53005180Y-130236666D02*
X52957561Y-130331904D01*
X52957561Y-130331904D02*
X52862323Y-130427142D01*
X52862323Y-130427142D02*
X52671847Y-130474761D01*
X52671847Y-130474761D02*
X52338514Y-130474761D01*
X52338514Y-130474761D02*
X52148038Y-130427142D01*
X52148038Y-130427142D02*
X52052800Y-130331904D01*
X52052800Y-130331904D02*
X52005180Y-130236666D01*
X52005180Y-130236666D02*
X52005180Y-130046190D01*
X52005180Y-130046190D02*
X52052800Y-129950952D01*
X52052800Y-129950952D02*
X52148038Y-129855714D01*
X52148038Y-129855714D02*
X52338514Y-129808095D01*
X52338514Y-129808095D02*
X52671847Y-129808095D01*
X52671847Y-129808095D02*
X52862323Y-129855714D01*
X52862323Y-129855714D02*
X52957561Y-129950952D01*
X52957561Y-129950952D02*
X53005180Y-130046190D01*
X52386133Y-130903333D02*
X52386133Y-131665238D01*
X52528990Y-132141428D02*
X52528990Y-132474761D01*
X52005180Y-132617618D02*
X52005180Y-132141428D01*
X52005180Y-132141428D02*
X53005180Y-132141428D01*
X53005180Y-132141428D02*
X53005180Y-132617618D01*
X52052800Y-132998571D02*
X52005180Y-133141428D01*
X52005180Y-133141428D02*
X52005180Y-133379523D01*
X52005180Y-133379523D02*
X52052800Y-133474761D01*
X52052800Y-133474761D02*
X52100419Y-133522380D01*
X52100419Y-133522380D02*
X52195657Y-133569999D01*
X52195657Y-133569999D02*
X52290895Y-133569999D01*
X52290895Y-133569999D02*
X52386133Y-133522380D01*
X52386133Y-133522380D02*
X52433752Y-133474761D01*
X52433752Y-133474761D02*
X52481371Y-133379523D01*
X52481371Y-133379523D02*
X52528990Y-133189047D01*
X52528990Y-133189047D02*
X52576609Y-133093809D01*
X52576609Y-133093809D02*
X52624228Y-133046190D01*
X52624228Y-133046190D02*
X52719466Y-132998571D01*
X52719466Y-132998571D02*
X52814704Y-132998571D01*
X52814704Y-132998571D02*
X52909942Y-133046190D01*
X52909942Y-133046190D02*
X52957561Y-133093809D01*
X52957561Y-133093809D02*
X53005180Y-133189047D01*
X53005180Y-133189047D02*
X53005180Y-133427142D01*
X53005180Y-133427142D02*
X52957561Y-133569999D01*
X52005180Y-133998571D02*
X53005180Y-133998571D01*
X53005180Y-133998571D02*
X53005180Y-134379523D01*
X53005180Y-134379523D02*
X52957561Y-134474761D01*
X52957561Y-134474761D02*
X52909942Y-134522380D01*
X52909942Y-134522380D02*
X52814704Y-134569999D01*
X52814704Y-134569999D02*
X52671847Y-134569999D01*
X52671847Y-134569999D02*
X52576609Y-134522380D01*
X52576609Y-134522380D02*
X52528990Y-134474761D01*
X52528990Y-134474761D02*
X52481371Y-134379523D01*
X52481371Y-134379523D02*
X52481371Y-133998571D01*
X53005180Y-134903333D02*
X53005180Y-135522380D01*
X53005180Y-135522380D02*
X52624228Y-135189047D01*
X52624228Y-135189047D02*
X52624228Y-135331904D01*
X52624228Y-135331904D02*
X52576609Y-135427142D01*
X52576609Y-135427142D02*
X52528990Y-135474761D01*
X52528990Y-135474761D02*
X52433752Y-135522380D01*
X52433752Y-135522380D02*
X52195657Y-135522380D01*
X52195657Y-135522380D02*
X52100419Y-135474761D01*
X52100419Y-135474761D02*
X52052800Y-135427142D01*
X52052800Y-135427142D02*
X52005180Y-135331904D01*
X52005180Y-135331904D02*
X52005180Y-135046190D01*
X52005180Y-135046190D02*
X52052800Y-134950952D01*
X52052800Y-134950952D02*
X52100419Y-134903333D01*
X52909942Y-135903333D02*
X52957561Y-135950952D01*
X52957561Y-135950952D02*
X53005180Y-136046190D01*
X53005180Y-136046190D02*
X53005180Y-136284285D01*
X53005180Y-136284285D02*
X52957561Y-136379523D01*
X52957561Y-136379523D02*
X52909942Y-136427142D01*
X52909942Y-136427142D02*
X52814704Y-136474761D01*
X52814704Y-136474761D02*
X52719466Y-136474761D01*
X52719466Y-136474761D02*
X52576609Y-136427142D01*
X52576609Y-136427142D02*
X52005180Y-135855714D01*
X52005180Y-135855714D02*
X52005180Y-136474761D01*
X52386133Y-136903333D02*
X52386133Y-137665238D01*
X52052800Y-138093809D02*
X52005180Y-138236666D01*
X52005180Y-138236666D02*
X52005180Y-138474761D01*
X52005180Y-138474761D02*
X52052800Y-138569999D01*
X52052800Y-138569999D02*
X52100419Y-138617618D01*
X52100419Y-138617618D02*
X52195657Y-138665237D01*
X52195657Y-138665237D02*
X52290895Y-138665237D01*
X52290895Y-138665237D02*
X52386133Y-138617618D01*
X52386133Y-138617618D02*
X52433752Y-138569999D01*
X52433752Y-138569999D02*
X52481371Y-138474761D01*
X52481371Y-138474761D02*
X52528990Y-138284285D01*
X52528990Y-138284285D02*
X52576609Y-138189047D01*
X52576609Y-138189047D02*
X52624228Y-138141428D01*
X52624228Y-138141428D02*
X52719466Y-138093809D01*
X52719466Y-138093809D02*
X52814704Y-138093809D01*
X52814704Y-138093809D02*
X52909942Y-138141428D01*
X52909942Y-138141428D02*
X52957561Y-138189047D01*
X52957561Y-138189047D02*
X53005180Y-138284285D01*
X53005180Y-138284285D02*
X53005180Y-138522380D01*
X53005180Y-138522380D02*
X52957561Y-138665237D01*
X53005180Y-138998571D02*
X53005180Y-139617618D01*
X53005180Y-139617618D02*
X52624228Y-139284285D01*
X52624228Y-139284285D02*
X52624228Y-139427142D01*
X52624228Y-139427142D02*
X52576609Y-139522380D01*
X52576609Y-139522380D02*
X52528990Y-139569999D01*
X52528990Y-139569999D02*
X52433752Y-139617618D01*
X52433752Y-139617618D02*
X52195657Y-139617618D01*
X52195657Y-139617618D02*
X52100419Y-139569999D01*
X52100419Y-139569999D02*
X52052800Y-139522380D01*
X52052800Y-139522380D02*
X52005180Y-139427142D01*
X52005180Y-139427142D02*
X52005180Y-139141428D01*
X52005180Y-139141428D02*
X52052800Y-139046190D01*
X52052800Y-139046190D02*
X52100419Y-138998571D01*
X63128095Y-132964819D02*
X63128095Y-133774342D01*
X63128095Y-133774342D02*
X63175714Y-133869580D01*
X63175714Y-133869580D02*
X63223333Y-133917200D01*
X63223333Y-133917200D02*
X63318571Y-133964819D01*
X63318571Y-133964819D02*
X63509047Y-133964819D01*
X63509047Y-133964819D02*
X63604285Y-133917200D01*
X63604285Y-133917200D02*
X63651904Y-133869580D01*
X63651904Y-133869580D02*
X63699523Y-133774342D01*
X63699523Y-133774342D02*
X63699523Y-132964819D01*
X64128095Y-133060057D02*
X64175714Y-133012438D01*
X64175714Y-133012438D02*
X64270952Y-132964819D01*
X64270952Y-132964819D02*
X64509047Y-132964819D01*
X64509047Y-132964819D02*
X64604285Y-133012438D01*
X64604285Y-133012438D02*
X64651904Y-133060057D01*
X64651904Y-133060057D02*
X64699523Y-133155295D01*
X64699523Y-133155295D02*
X64699523Y-133250533D01*
X64699523Y-133250533D02*
X64651904Y-133393390D01*
X64651904Y-133393390D02*
X64080476Y-133964819D01*
X64080476Y-133964819D02*
X64699523Y-133964819D01*
X71202819Y-143706094D02*
X70202819Y-143706094D01*
X70202819Y-143706094D02*
X70202819Y-143467999D01*
X70202819Y-143467999D02*
X70250438Y-143325142D01*
X70250438Y-143325142D02*
X70345676Y-143229904D01*
X70345676Y-143229904D02*
X70440914Y-143182285D01*
X70440914Y-143182285D02*
X70631390Y-143134666D01*
X70631390Y-143134666D02*
X70774247Y-143134666D01*
X70774247Y-143134666D02*
X70964723Y-143182285D01*
X70964723Y-143182285D02*
X71059961Y-143229904D01*
X71059961Y-143229904D02*
X71155200Y-143325142D01*
X71155200Y-143325142D02*
X71202819Y-143467999D01*
X71202819Y-143467999D02*
X71202819Y-143706094D01*
X70298057Y-142753713D02*
X70250438Y-142706094D01*
X70250438Y-142706094D02*
X70202819Y-142610856D01*
X70202819Y-142610856D02*
X70202819Y-142372761D01*
X70202819Y-142372761D02*
X70250438Y-142277523D01*
X70250438Y-142277523D02*
X70298057Y-142229904D01*
X70298057Y-142229904D02*
X70393295Y-142182285D01*
X70393295Y-142182285D02*
X70488533Y-142182285D01*
X70488533Y-142182285D02*
X70631390Y-142229904D01*
X70631390Y-142229904D02*
X71202819Y-142801332D01*
X71202819Y-142801332D02*
X71202819Y-142182285D01*
X69424819Y-134847904D02*
X68424819Y-134847904D01*
X69424819Y-134276476D02*
X68853390Y-134705047D01*
X68424819Y-134276476D02*
X68996247Y-134847904D01*
X71430666Y-114332819D02*
X71430666Y-115047104D01*
X71430666Y-115047104D02*
X71383047Y-115189961D01*
X71383047Y-115189961D02*
X71287809Y-115285200D01*
X71287809Y-115285200D02*
X71144952Y-115332819D01*
X71144952Y-115332819D02*
X71049714Y-115332819D01*
X72430666Y-115332819D02*
X71859238Y-115332819D01*
X72144952Y-115332819D02*
X72144952Y-114332819D01*
X72144952Y-114332819D02*
X72049714Y-114475676D01*
X72049714Y-114475676D02*
X71954476Y-114570914D01*
X71954476Y-114570914D02*
X71859238Y-114618533D01*
%TO.C,D1*%
D11*
X58810000Y-137100000D02*
X58810000Y-138280000D01*
X58810000Y-142740000D02*
X58810000Y-141560000D01*
X59730000Y-138736000D02*
X57890000Y-138736000D01*
X59730000Y-138856000D02*
X57890000Y-138856000D01*
X59730000Y-138976000D02*
X57890000Y-138976000D01*
X57890000Y-138280000D02*
X59730000Y-138280000D01*
X59730000Y-141560000D01*
X57890000Y-141560000D01*
X57890000Y-138280000D01*
%TO.C,R2*%
X66430000Y-134610000D02*
X66430000Y-135380000D01*
X66430000Y-142690000D02*
X66430000Y-141920000D01*
X65060000Y-135380000D02*
X67800000Y-135380000D01*
X67800000Y-141920000D01*
X65060000Y-141920000D01*
X65060000Y-135380000D01*
%TO.C,R1*%
X61350000Y-134610000D02*
X61350000Y-135380000D01*
X61350000Y-142690000D02*
X61350000Y-141920000D01*
X59980000Y-135380000D02*
X62720000Y-135380000D01*
X62720000Y-141920000D01*
X59980000Y-141920000D01*
X59980000Y-135380000D01*
%TO.C,U1*%
D12*
X56905000Y-144111000D02*
X70875000Y-144111000D01*
D13*
X56905000Y-144111000D02*
X70875000Y-144111000D01*
X59386000Y-145121000D02*
X59386000Y-144111000D01*
X67881272Y-145621000D02*
X59886000Y-145621000D01*
X68385000Y-144111000D02*
X68381272Y-145121272D01*
X70875000Y-123156000D02*
X56905000Y-123156000D01*
X55000000Y-125061000D02*
G75*
G02*
X56905000Y-123156000I1905001J-1D01*
G01*
X56905000Y-144111000D02*
G75*
G02*
X55000000Y-142206000I0J1905000D01*
G01*
X59886000Y-145621000D02*
G75*
G02*
X59386000Y-145121000I0J500000D01*
G01*
X68381272Y-145121272D02*
G75*
G02*
X67881272Y-145620972I-499972J272D01*
G01*
X70875000Y-123156000D02*
G75*
G02*
X72780000Y-125061000I-1J-1905001D01*
G01*
X72780000Y-142206000D02*
G75*
G02*
X70875000Y-144111000I-1905000J0D01*
G01*
D14*
X73892000Y-143120000D02*
G75*
G02*
X73388000Y-143120000I-252000J0D01*
G01*
X73388000Y-143120000D02*
G75*
G02*
X73892000Y-143120000I252000J0D01*
G01*
%TO.C,U2*%
D11*
X58080000Y-123890000D02*
X69800000Y-123890000D01*
X58080000Y-132510000D02*
X58080000Y-123890000D01*
X69800000Y-123890000D02*
X69800000Y-132510000D01*
X69800000Y-132510000D02*
X58080000Y-132510000D01*
X70040000Y-123650000D02*
X68800000Y-123650000D01*
X70040000Y-124890000D02*
X70040000Y-123650000D01*
%TO.C,D2*%
X68970000Y-137100000D02*
X68970000Y-138280000D01*
X68970000Y-142740000D02*
X68970000Y-141560000D01*
X69890000Y-138736000D02*
X68050000Y-138736000D01*
X69890000Y-138856000D02*
X68050000Y-138856000D01*
X69890000Y-138976000D02*
X68050000Y-138976000D01*
X68050000Y-138280000D02*
X69890000Y-138280000D01*
X69890000Y-141560000D01*
X68050000Y-141560000D01*
X68050000Y-138280000D01*
%TO.C,J1*%
X57180000Y-110420000D02*
X57180000Y-110880000D01*
X57180000Y-122210000D02*
X57180000Y-113080000D01*
X70600000Y-110420000D02*
X70600000Y-110880000D01*
X70600000Y-113080000D02*
X70600000Y-122210000D01*
X70600000Y-122210000D02*
X57180000Y-122210000D01*
X70910000Y-120100000D02*
X70910000Y-121630000D01*
%TD*%
%LPC*%
D15*
%TO.C,D1*%
X58810000Y-136110000D03*
D16*
X58810000Y-143730000D03*
%TD*%
D17*
%TO.C,R2*%
X66430000Y-143730000D03*
X66430000Y-133570000D03*
%TD*%
%TO.C,R1*%
X61350000Y-143730000D03*
X61350000Y-133570000D03*
%TD*%
D18*
%TO.C,U1*%
X72345000Y-141190000D03*
D19*
X71510000Y-141190000D03*
D18*
X72345000Y-138650000D03*
D19*
X71510000Y-138650000D03*
D18*
X72345000Y-136110000D03*
D19*
X71510000Y-136110000D03*
D18*
X72345000Y-133570000D03*
D19*
X71510000Y-133570000D03*
D18*
X72345000Y-131030000D03*
D19*
X71510000Y-131030000D03*
D18*
X72345000Y-128490000D03*
D19*
X71510000Y-128490000D03*
D18*
X72345000Y-125950000D03*
D19*
X71510000Y-125950000D03*
X56270000Y-125950000D03*
D20*
X55435000Y-125950000D03*
D19*
X56270000Y-128490000D03*
D20*
X55435000Y-128490000D03*
D19*
X56270000Y-131030000D03*
D20*
X55435000Y-131030000D03*
D19*
X56270000Y-133570000D03*
D20*
X55435000Y-133570000D03*
D19*
X56270000Y-136110000D03*
D20*
X55435000Y-136110000D03*
D19*
X56270000Y-138650000D03*
D20*
X55435000Y-138650000D03*
D19*
X56270000Y-141190000D03*
D20*
X55435000Y-141190000D03*
%TD*%
D21*
%TO.C,U2*%
X66430000Y-125950000D03*
D22*
X63890000Y-125950000D03*
X61350000Y-125950000D03*
%TD*%
D15*
%TO.C,D2*%
X68970000Y-136110000D03*
D16*
X68970000Y-143730000D03*
%TD*%
D23*
%TO.C,J1*%
X68970000Y-111980000D03*
X58810000Y-111980000D03*
D24*
X67070000Y-120870000D03*
D25*
X65800000Y-118330000D03*
X64530000Y-120870000D03*
X63260000Y-118330000D03*
X61990000Y-120870000D03*
X60720000Y-118330000D03*
%TD*%
%LPD*%
M02*
