%TF.GenerationSoftware,KiCad,Pcbnew,10.0.4+b1*%
%TF.CreationDate,2026-08-08T17:05:19+02:00*%
%TF.ProjectId,blesyn,626c6573-796e-42e6-9b69-6361645f7063,rev?*%
%TF.SameCoordinates,Original*%
%TF.FileFunction,Copper,L1,Top*%
%TF.FilePolarity,Positive*%
%FSLAX46Y46*%
G04 Gerber Fmt 4.6, Leading zero omitted, Abs format (unit mm)*
G04 Created by KiCad (PCBNEW 10.0.4+b1) date 2026-08-08 17:05:19*
%MOMM*%
%LPD*%
G01*
G04 APERTURE LIST*
G04 Aperture macros list*
%AMRoundRect*
0 Rectangle with rounded corners*
0 $1 Rounding radius*
0 $2 $3 $4 $5 $6 $7 $8 $9 X,Y pos of 4 corners*
0 Add a 4 corners polygon primitive as box body*
4,1,4,$2,$3,$4,$5,$6,$7,$8,$9,$2,$3,0*
0 Add four circle primitives for the rounded corners*
1,1,$1+$1,$2,$3*
1,1,$1+$1,$4,$5*
1,1,$1+$1,$6,$7*
1,1,$1+$1,$8,$9*
0 Add four rect primitives between the rounded corners*
20,1,$1+$1,$2,$3,$4,$5,0*
20,1,$1+$1,$4,$5,$6,$7,0*
20,1,$1+$1,$6,$7,$8,$9,0*
20,1,$1+$1,$8,$9,$2,$3,0*%
G04 Aperture macros list end*
%TA.AperFunction,ComponentPad*%
%ADD10RoundRect,0.250001X-0.499999X0.499999X-0.499999X-0.499999X0.499999X-0.499999X0.499999X0.499999X0*%
%TD*%
%TA.AperFunction,ComponentPad*%
%ADD11C,1.500000*%
%TD*%
%TA.AperFunction,ComponentPad*%
%ADD12C,1.600000*%
%TD*%
%TA.AperFunction,SMDPad,CuDef*%
%ADD13RoundRect,0.152400X-1.063600X-0.609600X1.063600X-0.609600X1.063600X0.609600X-1.063600X0.609600X0*%
%TD*%
%TA.AperFunction,ComponentPad*%
%ADD14C,1.524000*%
%TD*%
%TA.AperFunction,SMDPad,CuDef*%
%ADD15RoundRect,0.152400X1.063600X0.609600X-1.063600X0.609600X-1.063600X-0.609600X1.063600X-0.609600X0*%
%TD*%
%TA.AperFunction,ComponentPad*%
%ADD16R,1.500000X2.300000*%
%TD*%
%TA.AperFunction,ComponentPad*%
%ADD17O,1.500000X2.300000*%
%TD*%
%TA.AperFunction,ComponentPad*%
%ADD18RoundRect,0.250000X0.510000X0.510000X-0.510000X0.510000X-0.510000X-0.510000X0.510000X-0.510000X0*%
%TD*%
%TA.AperFunction,ComponentPad*%
%ADD19C,1.520000*%
%TD*%
%TA.AperFunction,Conductor*%
%ADD20C,0.400000*%
%TD*%
G04 APERTURE END LIST*
D10*
%TO.P,D1,1,K_1*%
%TO.N,Net-(D1-K)*%
X58810000Y-136110000D03*
D11*
%TO.P,D1,2,A_2*%
%TO.N,/RX*%
X58810000Y-143730000D03*
%TD*%
D12*
%TO.P,R2,1*%
%TO.N,/TX*%
X66430000Y-143730000D03*
%TO.P,R2,2*%
%TO.N,Net-(D2-K)*%
X66430000Y-133570000D03*
%TD*%
%TO.P,R1,1*%
%TO.N,/RX*%
X61350000Y-143730000D03*
%TO.P,R1,2*%
%TO.N,Net-(D1-K)*%
X61350000Y-133570000D03*
%TD*%
D13*
%TO.P,U1,1,D0_1*%
%TO.N,unconnected-(U1-D0-Pad1)*%
X72345000Y-141190000D03*
D14*
X71510000Y-141190000D03*
D13*
%TO.P,U1,2,D1_2*%
%TO.N,unconnected-(U1-D1-Pad2)*%
X72345000Y-138650000D03*
D14*
X71510000Y-138650000D03*
D13*
%TO.P,U1,3,D2_3*%
%TO.N,unconnected-(U1-D2-Pad3)*%
X72345000Y-136110000D03*
D14*
X71510000Y-136110000D03*
D13*
%TO.P,U1,4,D3_4*%
%TO.N,unconnected-(U1-D3-Pad4)*%
X72345000Y-133570000D03*
D14*
X71510000Y-133570000D03*
D13*
%TO.P,U1,5,D4_5*%
%TO.N,unconnected-(U1-D4-Pad5)*%
X72345000Y-131030000D03*
D14*
X71510000Y-131030000D03*
D13*
%TO.P,U1,6,D5_6*%
%TO.N,Net-(D2-K)*%
X72345000Y-128490000D03*
D14*
X71510000Y-128490000D03*
D13*
%TO.P,U1,7,D6_7*%
%TO.N,/TX*%
X72345000Y-125950000D03*
D14*
X71510000Y-125950000D03*
%TO.P,U1,8,D7_8*%
%TO.N,/RX*%
X56270000Y-125950000D03*
D15*
X55435000Y-125950000D03*
D14*
%TO.P,U1,9,D8_9*%
%TO.N,Net-(D1-K)*%
X56270000Y-128490000D03*
D15*
X55435000Y-128490000D03*
D14*
%TO.P,U1,10,D9_10*%
%TO.N,unconnected-(U1-D9-Pad10)*%
X56270000Y-131030000D03*
D15*
X55435000Y-131030000D03*
D14*
%TO.P,U1,11,D10_11*%
%TO.N,unconnected-(U1-D10-Pad11)*%
X56270000Y-133570000D03*
D15*
X55435000Y-133570000D03*
D14*
%TO.P,U1,12,3V3_OUT_12*%
%TO.N,Net-(U1-3V3_OUT)*%
X56270000Y-136110000D03*
D15*
X55435000Y-136110000D03*
D14*
%TO.P,U1,13,GND_13*%
%TO.N,GND*%
X56270000Y-138650000D03*
D15*
X55435000Y-138650000D03*
D14*
%TO.P,U1,14,VBUS_14*%
%TO.N,unconnected-(U1-VBUS-Pad14)*%
X56270000Y-141190000D03*
D15*
X55435000Y-141190000D03*
%TD*%
D16*
%TO.P,U2,1,IN_1*%
%TO.N,+12V*%
X66430000Y-125950000D03*
D17*
%TO.P,U2,2,GND_2*%
%TO.N,GND*%
X63890000Y-125950000D03*
%TO.P,U2,3,OUT_3*%
%TO.N,Net-(U1-3V3_OUT)*%
X61350000Y-125950000D03*
%TD*%
D10*
%TO.P,D2,1,K_1*%
%TO.N,Net-(D2-K)*%
X68970000Y-136110000D03*
D11*
%TO.P,D2,2,A_2*%
%TO.N,/TX*%
X68970000Y-143730000D03*
%TD*%
D18*
%TO.P,J1,1*%
%TO.N,unconnected-(J1-Pad1)*%
X67070000Y-120870000D03*
D19*
%TO.P,J1,2*%
%TO.N,/TX*%
X65800000Y-118330000D03*
%TO.P,J1,3*%
%TO.N,+12V*%
X64530000Y-120870000D03*
%TO.P,J1,4*%
%TO.N,/RX*%
X63260000Y-118330000D03*
%TO.P,J1,5*%
%TO.N,GND*%
X61990000Y-120870000D03*
%TO.P,J1,6*%
%TO.N,unconnected-(J1-Pad6)*%
X60720000Y-118330000D03*
%TD*%
%TO.N,Net-(U1-3V3_OUT)*%
D20*
X61350000Y-125950000D02*
X61350000Y-131030000D01*
X61350000Y-131030000D02*
X56270000Y-136110000D01*
%TO.N,GND*%
X63890000Y-125950000D02*
X63890000Y-133570000D01*
%TD*%
%TA.AperFunction,Conductor*%
%TO.N,GND*%
G36*
X70784042Y-109515729D02*
G01*
X70804537Y-109517072D01*
X71023106Y-109531397D01*
X71039154Y-109533510D01*
X71060785Y-109537813D01*
X71092039Y-109548519D01*
X72108030Y-110056515D01*
X72159188Y-110104102D01*
X72163484Y-110111969D01*
X72671432Y-111127864D01*
X72682140Y-111159126D01*
X72686449Y-111180787D01*
X72688567Y-111196870D01*
X72704235Y-111435920D01*
X72704500Y-111444030D01*
X72704500Y-124913500D01*
X72684815Y-124980539D01*
X72632011Y-125026294D01*
X72580500Y-125037500D01*
X71236172Y-125037500D01*
X71210849Y-125040438D01*
X71210847Y-125040438D01*
X71107259Y-125086178D01*
X71107257Y-125086179D01*
X71107255Y-125086180D01*
X71107254Y-125086180D01*
X71107252Y-125086182D01*
X71019056Y-125174379D01*
X71018470Y-125173793D01*
X70996049Y-125195956D01*
X70928311Y-125241217D01*
X70801217Y-125368311D01*
X70801214Y-125368315D01*
X70701356Y-125517762D01*
X70701349Y-125517775D01*
X70632568Y-125683829D01*
X70632565Y-125683841D01*
X70597500Y-125860122D01*
X70597500Y-126039877D01*
X70632565Y-126216158D01*
X70632568Y-126216170D01*
X70701349Y-126382224D01*
X70701356Y-126382237D01*
X70801214Y-126531684D01*
X70801217Y-126531688D01*
X70928312Y-126658783D01*
X70928315Y-126658785D01*
X70996046Y-126704041D01*
X71018469Y-126726205D01*
X71019055Y-126725620D01*
X71027180Y-126733745D01*
X71107255Y-126813820D01*
X71210850Y-126859562D01*
X71236174Y-126862500D01*
X71420127Y-126862500D01*
X71599873Y-126862500D01*
X72580500Y-126862500D01*
X72647539Y-126882185D01*
X72693294Y-126934989D01*
X72704500Y-126986500D01*
X72704500Y-127453500D01*
X72684815Y-127520539D01*
X72632011Y-127566294D01*
X72580500Y-127577500D01*
X71236172Y-127577500D01*
X71210849Y-127580438D01*
X71210847Y-127580438D01*
X71107259Y-127626178D01*
X71107257Y-127626179D01*
X71107255Y-127626180D01*
X71107254Y-127626180D01*
X71107252Y-127626182D01*
X71019056Y-127714379D01*
X71018470Y-127713793D01*
X70996049Y-127735956D01*
X70928311Y-127781217D01*
X70801217Y-127908311D01*
X70801214Y-127908315D01*
X70701356Y-128057762D01*
X70701349Y-128057775D01*
X70632568Y-128223829D01*
X70632565Y-128223841D01*
X70597500Y-128400122D01*
X70597500Y-128579877D01*
X70632565Y-128756158D01*
X70632568Y-128756170D01*
X70701349Y-128922224D01*
X70701356Y-128922237D01*
X70801214Y-129071684D01*
X70801217Y-129071688D01*
X70928312Y-129198783D01*
X70928315Y-129198785D01*
X70996046Y-129244041D01*
X71018469Y-129266205D01*
X71019055Y-129265620D01*
X71027180Y-129273745D01*
X71107255Y-129353820D01*
X71210850Y-129399562D01*
X71236174Y-129402500D01*
X71420127Y-129402500D01*
X71599873Y-129402500D01*
X72580500Y-129402500D01*
X72647539Y-129422185D01*
X72693294Y-129474989D01*
X72704500Y-129526500D01*
X72704500Y-129993500D01*
X72684815Y-130060539D01*
X72632011Y-130106294D01*
X72580500Y-130117500D01*
X71236172Y-130117500D01*
X71210849Y-130120438D01*
X71210847Y-130120438D01*
X71107259Y-130166178D01*
X71107257Y-130166179D01*
X71107255Y-130166180D01*
X71107254Y-130166180D01*
X71107252Y-130166182D01*
X71019056Y-130254379D01*
X71018470Y-130253793D01*
X70996049Y-130275956D01*
X70928311Y-130321217D01*
X70801217Y-130448311D01*
X70801214Y-130448315D01*
X70701356Y-130597762D01*
X70701349Y-130597775D01*
X70632568Y-130763829D01*
X70632565Y-130763841D01*
X70597500Y-130940122D01*
X70597500Y-131119877D01*
X70632565Y-131296158D01*
X70632568Y-131296170D01*
X70701349Y-131462224D01*
X70701356Y-131462237D01*
X70801214Y-131611684D01*
X70801217Y-131611688D01*
X70928312Y-131738783D01*
X70928315Y-131738785D01*
X70996046Y-131784041D01*
X71018469Y-131806205D01*
X71019055Y-131805620D01*
X71027180Y-131813745D01*
X71107255Y-131893820D01*
X71210850Y-131939562D01*
X71236174Y-131942500D01*
X71420127Y-131942500D01*
X71599873Y-131942500D01*
X72580500Y-131942500D01*
X72647539Y-131962185D01*
X72693294Y-132014989D01*
X72704500Y-132066500D01*
X72704500Y-132533500D01*
X72684815Y-132600539D01*
X72632011Y-132646294D01*
X72580500Y-132657500D01*
X71236172Y-132657500D01*
X71210849Y-132660438D01*
X71210847Y-132660438D01*
X71107259Y-132706178D01*
X71107257Y-132706179D01*
X71107255Y-132706180D01*
X71107254Y-132706180D01*
X71107252Y-132706182D01*
X71019056Y-132794379D01*
X71018470Y-132793793D01*
X70996049Y-132815956D01*
X70928311Y-132861217D01*
X70801217Y-132988311D01*
X70801214Y-132988315D01*
X70701356Y-133137762D01*
X70701349Y-133137775D01*
X70632568Y-133303829D01*
X70632565Y-133303841D01*
X70597500Y-133480122D01*
X70597500Y-133659877D01*
X70632565Y-133836158D01*
X70632568Y-133836170D01*
X70701349Y-134002224D01*
X70701356Y-134002237D01*
X70801214Y-134151684D01*
X70801217Y-134151688D01*
X70928312Y-134278783D01*
X70928315Y-134278785D01*
X70996046Y-134324041D01*
X71018469Y-134346205D01*
X71019055Y-134345620D01*
X71027180Y-134353745D01*
X71107255Y-134433820D01*
X71210850Y-134479562D01*
X71236174Y-134482500D01*
X71420127Y-134482500D01*
X71599873Y-134482500D01*
X72580500Y-134482500D01*
X72647539Y-134502185D01*
X72693294Y-134554989D01*
X72704500Y-134606500D01*
X72704500Y-135073500D01*
X72684815Y-135140539D01*
X72632011Y-135186294D01*
X72580500Y-135197500D01*
X71236172Y-135197500D01*
X71210849Y-135200438D01*
X71210847Y-135200438D01*
X71107259Y-135246178D01*
X71107257Y-135246179D01*
X71107255Y-135246180D01*
X71107254Y-135246180D01*
X71107252Y-135246182D01*
X71019056Y-135334379D01*
X71018470Y-135333793D01*
X70996049Y-135355956D01*
X70928311Y-135401217D01*
X70801217Y-135528311D01*
X70801214Y-135528315D01*
X70701356Y-135677762D01*
X70701349Y-135677775D01*
X70632568Y-135843829D01*
X70632565Y-135843841D01*
X70597500Y-136020122D01*
X70597500Y-136199877D01*
X70632565Y-136376158D01*
X70632568Y-136376170D01*
X70701349Y-136542224D01*
X70701356Y-136542237D01*
X70801214Y-136691684D01*
X70801217Y-136691688D01*
X70928312Y-136818783D01*
X70928315Y-136818785D01*
X70996046Y-136864041D01*
X71018469Y-136886205D01*
X71019055Y-136885620D01*
X71027180Y-136893745D01*
X71107255Y-136973820D01*
X71210850Y-137019562D01*
X71236174Y-137022500D01*
X71420127Y-137022500D01*
X71599873Y-137022500D01*
X72580500Y-137022500D01*
X72647539Y-137042185D01*
X72693294Y-137094989D01*
X72704500Y-137146500D01*
X72704500Y-137613500D01*
X72684815Y-137680539D01*
X72632011Y-137726294D01*
X72580500Y-137737500D01*
X71236172Y-137737500D01*
X71210849Y-137740438D01*
X71210847Y-137740438D01*
X71107259Y-137786178D01*
X71107257Y-137786179D01*
X71107255Y-137786180D01*
X71107254Y-137786180D01*
X71107252Y-137786182D01*
X71019056Y-137874379D01*
X71018470Y-137873793D01*
X70996049Y-137895956D01*
X70928311Y-137941217D01*
X70801217Y-138068311D01*
X70801214Y-138068315D01*
X70701356Y-138217762D01*
X70701349Y-138217775D01*
X70632568Y-138383829D01*
X70632565Y-138383841D01*
X70597500Y-138560122D01*
X70597500Y-138739877D01*
X70632565Y-138916158D01*
X70632568Y-138916170D01*
X70701349Y-139082224D01*
X70701356Y-139082237D01*
X70801214Y-139231684D01*
X70801217Y-139231688D01*
X70928312Y-139358783D01*
X70928315Y-139358785D01*
X70996046Y-139404041D01*
X71018469Y-139426205D01*
X71019055Y-139425620D01*
X71027180Y-139433745D01*
X71107255Y-139513820D01*
X71210850Y-139559562D01*
X71236174Y-139562500D01*
X71420127Y-139562500D01*
X71599873Y-139562500D01*
X72580500Y-139562500D01*
X72647539Y-139582185D01*
X72693294Y-139634989D01*
X72704500Y-139686500D01*
X72704500Y-140153500D01*
X72684815Y-140220539D01*
X72632011Y-140266294D01*
X72580500Y-140277500D01*
X71236172Y-140277500D01*
X71210849Y-140280438D01*
X71210847Y-140280438D01*
X71107259Y-140326178D01*
X71107257Y-140326179D01*
X71107255Y-140326180D01*
X71107254Y-140326180D01*
X71107252Y-140326182D01*
X71019056Y-140414379D01*
X71018470Y-140413793D01*
X70996049Y-140435956D01*
X70928311Y-140481217D01*
X70801217Y-140608311D01*
X70801214Y-140608315D01*
X70701356Y-140757762D01*
X70701349Y-140757775D01*
X70632568Y-140923829D01*
X70632565Y-140923841D01*
X70597500Y-141100122D01*
X70597500Y-141279877D01*
X70632565Y-141456158D01*
X70632568Y-141456170D01*
X70701349Y-141622224D01*
X70701356Y-141622237D01*
X70801214Y-141771684D01*
X70801217Y-141771688D01*
X70928312Y-141898783D01*
X70928315Y-141898785D01*
X70996046Y-141944041D01*
X71018469Y-141966205D01*
X71019055Y-141965620D01*
X71027180Y-141973745D01*
X71107255Y-142053820D01*
X71210850Y-142099562D01*
X71236174Y-142102500D01*
X71420127Y-142102500D01*
X71599873Y-142102500D01*
X72580500Y-142102500D01*
X72647539Y-142122185D01*
X72693294Y-142174989D01*
X72704500Y-142226500D01*
X72704500Y-142995904D01*
X72704235Y-143004007D01*
X72704235Y-143004010D01*
X72688574Y-143243055D01*
X72686457Y-143259138D01*
X72682131Y-143280888D01*
X72671422Y-143312153D01*
X72163484Y-144328029D01*
X72115897Y-144379188D01*
X72108029Y-144383484D01*
X71092244Y-144891375D01*
X71060983Y-144902083D01*
X71039181Y-144906420D01*
X71023094Y-144908538D01*
X70784047Y-144924199D01*
X70775941Y-144924464D01*
X66556120Y-144924464D01*
X66489081Y-144904779D01*
X66443326Y-144851975D01*
X66433382Y-144782817D01*
X66462407Y-144719261D01*
X66521185Y-144681487D01*
X66531929Y-144678847D01*
X66616109Y-144662102D01*
X66707251Y-144643973D01*
X66880231Y-144572322D01*
X67035908Y-144468302D01*
X67168302Y-144335908D01*
X67272322Y-144180231D01*
X67343973Y-144007251D01*
X67380500Y-143823616D01*
X67380500Y-143641304D01*
X68069500Y-143641304D01*
X68069500Y-143818695D01*
X68104103Y-143992658D01*
X68104106Y-143992667D01*
X68171983Y-144156540D01*
X68171990Y-144156553D01*
X68270535Y-144304034D01*
X68270538Y-144304038D01*
X68395961Y-144429461D01*
X68395965Y-144429464D01*
X68543446Y-144528009D01*
X68543459Y-144528016D01*
X68650428Y-144572323D01*
X68707334Y-144595894D01*
X68707336Y-144595894D01*
X68707341Y-144595896D01*
X68881304Y-144630499D01*
X68881307Y-144630500D01*
X68881309Y-144630500D01*
X69058693Y-144630500D01*
X69058694Y-144630499D01*
X69116682Y-144618964D01*
X69232658Y-144595896D01*
X69232661Y-144595894D01*
X69232666Y-144595894D01*
X69396547Y-144528013D01*
X69544035Y-144429464D01*
X69669464Y-144304035D01*
X69768013Y-144156547D01*
X69835894Y-143992666D01*
X69841952Y-143962214D01*
X69858964Y-143876682D01*
X69870500Y-143818691D01*
X69870500Y-143641309D01*
X69870500Y-143641306D01*
X69870499Y-143641304D01*
X69835896Y-143467341D01*
X69835893Y-143467332D01*
X69768016Y-143303459D01*
X69768009Y-143303446D01*
X69669464Y-143155965D01*
X69669461Y-143155961D01*
X69544038Y-143030538D01*
X69544034Y-143030535D01*
X69396553Y-142931990D01*
X69396540Y-142931983D01*
X69232667Y-142864106D01*
X69232658Y-142864103D01*
X69058694Y-142829500D01*
X69058691Y-142829500D01*
X68881309Y-142829500D01*
X68881306Y-142829500D01*
X68707341Y-142864103D01*
X68707332Y-142864106D01*
X68543459Y-142931983D01*
X68543446Y-142931990D01*
X68395965Y-143030535D01*
X68395961Y-143030538D01*
X68270538Y-143155961D01*
X68270535Y-143155965D01*
X68171990Y-143303446D01*
X68171983Y-143303459D01*
X68104106Y-143467332D01*
X68104103Y-143467341D01*
X68069500Y-143641304D01*
X67380500Y-143641304D01*
X67380500Y-143636384D01*
X67343973Y-143452749D01*
X67272322Y-143279769D01*
X67272321Y-143279768D01*
X67272318Y-143279762D01*
X67168302Y-143124092D01*
X67168299Y-143124088D01*
X67035911Y-142991700D01*
X67035907Y-142991697D01*
X66880237Y-142887681D01*
X66880228Y-142887676D01*
X66707251Y-142816027D01*
X66707243Y-142816025D01*
X66523620Y-142779500D01*
X66523616Y-142779500D01*
X66336384Y-142779500D01*
X66336379Y-142779500D01*
X66152756Y-142816025D01*
X66152748Y-142816027D01*
X65979771Y-142887676D01*
X65979762Y-142887681D01*
X65824092Y-142991697D01*
X65824088Y-142991700D01*
X65691700Y-143124088D01*
X65691697Y-143124092D01*
X65587681Y-143279762D01*
X65587676Y-143279771D01*
X65516027Y-143452748D01*
X65516025Y-143452756D01*
X65479500Y-143636379D01*
X65479500Y-143823620D01*
X65516025Y-144007243D01*
X65516027Y-144007251D01*
X65587676Y-144180228D01*
X65587681Y-144180237D01*
X65691697Y-144335907D01*
X65691700Y-144335911D01*
X65824088Y-144468299D01*
X65824092Y-144468302D01*
X65979762Y-144572318D01*
X65979768Y-144572321D01*
X65979769Y-144572322D01*
X66152749Y-144643973D01*
X66226049Y-144658553D01*
X66328071Y-144678847D01*
X66389982Y-144711232D01*
X66424556Y-144771947D01*
X66420817Y-144841717D01*
X66379951Y-144898389D01*
X66314932Y-144923970D01*
X66303880Y-144924464D01*
X61476120Y-144924464D01*
X61409081Y-144904779D01*
X61363326Y-144851975D01*
X61353382Y-144782817D01*
X61382407Y-144719261D01*
X61441185Y-144681487D01*
X61451929Y-144678847D01*
X61536109Y-144662102D01*
X61627251Y-144643973D01*
X61800231Y-144572322D01*
X61955908Y-144468302D01*
X62088302Y-144335908D01*
X62192322Y-144180231D01*
X62263973Y-144007251D01*
X62300500Y-143823616D01*
X62300500Y-143636384D01*
X62263973Y-143452749D01*
X62192322Y-143279769D01*
X62192321Y-143279768D01*
X62192318Y-143279762D01*
X62088302Y-143124092D01*
X62088299Y-143124088D01*
X61955911Y-142991700D01*
X61955907Y-142991697D01*
X61800237Y-142887681D01*
X61800228Y-142887676D01*
X61627251Y-142816027D01*
X61627243Y-142816025D01*
X61443620Y-142779500D01*
X61443616Y-142779500D01*
X61256384Y-142779500D01*
X61256379Y-142779500D01*
X61072756Y-142816025D01*
X61072748Y-142816027D01*
X60899771Y-142887676D01*
X60899762Y-142887681D01*
X60744092Y-142991697D01*
X60744088Y-142991700D01*
X60611700Y-143124088D01*
X60611697Y-143124092D01*
X60507681Y-143279762D01*
X60507676Y-143279771D01*
X60436027Y-143452748D01*
X60436025Y-143452756D01*
X60399500Y-143636379D01*
X60399500Y-143823620D01*
X60436025Y-144007243D01*
X60436027Y-144007251D01*
X60507676Y-144180228D01*
X60507681Y-144180237D01*
X60611697Y-144335907D01*
X60611700Y-144335911D01*
X60744088Y-144468299D01*
X60744092Y-144468302D01*
X60899762Y-144572318D01*
X60899768Y-144572321D01*
X60899769Y-144572322D01*
X61072749Y-144643973D01*
X61146049Y-144658553D01*
X61248071Y-144678847D01*
X61309982Y-144711232D01*
X61344556Y-144771947D01*
X61340817Y-144841717D01*
X61299951Y-144898389D01*
X61234932Y-144923970D01*
X61223880Y-144924464D01*
X57004067Y-144924464D01*
X56995957Y-144924199D01*
X56756906Y-144908531D01*
X56740824Y-144906413D01*
X56732609Y-144904779D01*
X56718981Y-144902068D01*
X56687722Y-144891361D01*
X55671968Y-144383484D01*
X55620810Y-144335897D01*
X55616514Y-144328029D01*
X55604519Y-144304038D01*
X55273152Y-143641304D01*
X57909500Y-143641304D01*
X57909500Y-143818695D01*
X57944103Y-143992658D01*
X57944106Y-143992667D01*
X58011983Y-144156540D01*
X58011990Y-144156553D01*
X58110535Y-144304034D01*
X58110538Y-144304038D01*
X58235961Y-144429461D01*
X58235965Y-144429464D01*
X58383446Y-144528009D01*
X58383459Y-144528016D01*
X58490428Y-144572323D01*
X58547334Y-144595894D01*
X58547336Y-144595894D01*
X58547341Y-144595896D01*
X58721304Y-144630499D01*
X58721307Y-144630500D01*
X58721309Y-144630500D01*
X58898693Y-144630500D01*
X58898694Y-144630499D01*
X58956682Y-144618964D01*
X59072658Y-144595896D01*
X59072661Y-144595894D01*
X59072666Y-144595894D01*
X59236547Y-144528013D01*
X59384035Y-144429464D01*
X59509464Y-144304035D01*
X59608013Y-144156547D01*
X59675894Y-143992666D01*
X59681952Y-143962214D01*
X59698964Y-143876682D01*
X59710500Y-143818691D01*
X59710500Y-143641309D01*
X59710500Y-143641306D01*
X59710499Y-143641304D01*
X59675896Y-143467341D01*
X59675893Y-143467332D01*
X59608016Y-143303459D01*
X59608009Y-143303446D01*
X59509464Y-143155965D01*
X59509461Y-143155961D01*
X59384038Y-143030538D01*
X59384034Y-143030535D01*
X59236553Y-142931990D01*
X59236540Y-142931983D01*
X59072667Y-142864106D01*
X59072658Y-142864103D01*
X58898694Y-142829500D01*
X58898691Y-142829500D01*
X58721309Y-142829500D01*
X58721306Y-142829500D01*
X58547341Y-142864103D01*
X58547332Y-142864106D01*
X58383459Y-142931983D01*
X58383446Y-142931990D01*
X58235965Y-143030535D01*
X58235961Y-143030538D01*
X58110538Y-143155961D01*
X58110535Y-143155965D01*
X58011990Y-143303446D01*
X58011983Y-143303459D01*
X57944106Y-143467332D01*
X57944103Y-143467341D01*
X57909500Y-143641304D01*
X55273152Y-143641304D01*
X55108590Y-143312181D01*
X55097884Y-143280923D01*
X55093550Y-143259135D01*
X55091433Y-143243060D01*
X55075765Y-143004007D01*
X55075500Y-142995897D01*
X55075500Y-142226500D01*
X55095185Y-142159461D01*
X55147989Y-142113706D01*
X55199500Y-142102500D01*
X56543825Y-142102500D01*
X56543826Y-142102500D01*
X56569150Y-142099562D01*
X56672745Y-142053820D01*
X56752820Y-141973745D01*
X56752820Y-141973744D01*
X56760946Y-141965619D01*
X56761532Y-141966205D01*
X56783951Y-141944041D01*
X56851685Y-141898785D01*
X56978785Y-141771685D01*
X57078647Y-141622231D01*
X57147433Y-141456166D01*
X57182500Y-141279873D01*
X57182500Y-141100127D01*
X57182500Y-141100124D01*
X57182499Y-141100122D01*
X57147434Y-140923841D01*
X57147433Y-140923834D01*
X57147431Y-140923829D01*
X57078650Y-140757775D01*
X57078643Y-140757762D01*
X56978785Y-140608315D01*
X56978782Y-140608311D01*
X56851688Y-140481217D01*
X56851680Y-140481211D01*
X56783954Y-140435958D01*
X56761533Y-140413793D01*
X56760946Y-140414381D01*
X56752820Y-140406255D01*
X56672745Y-140326180D01*
X56639597Y-140311543D01*
X56569151Y-140280438D01*
X56543827Y-140277500D01*
X56543826Y-140277500D01*
X55199500Y-140277500D01*
X55190814Y-140274949D01*
X55181853Y-140276238D01*
X55157812Y-140265259D01*
X55132461Y-140257815D01*
X55126533Y-140250974D01*
X55118297Y-140247213D01*
X55104007Y-140224978D01*
X55086706Y-140205011D01*
X55084418Y-140194496D01*
X55080523Y-140188435D01*
X55075500Y-140153500D01*
X55075500Y-140035999D01*
X55095185Y-139968960D01*
X55147989Y-139923205D01*
X55199500Y-139911999D01*
X56165543Y-139911999D01*
X56165567Y-139912000D01*
X56343447Y-139912000D01*
X56343447Y-139911999D01*
X55169128Y-138737681D01*
X55164789Y-138729735D01*
X55157542Y-138724310D01*
X55148307Y-138699550D01*
X55135643Y-138676358D01*
X55136288Y-138667328D01*
X55133125Y-138658846D01*
X55135049Y-138649999D01*
X55788553Y-138649999D01*
X55788553Y-138650000D01*
X55825500Y-138686947D01*
X55825500Y-138708520D01*
X55855792Y-138821571D01*
X55914311Y-138922930D01*
X55997070Y-139005689D01*
X56098429Y-139064208D01*
X56211480Y-139094500D01*
X56233053Y-139094500D01*
X56909691Y-139771139D01*
X56973639Y-139707192D01*
X56973639Y-139707191D01*
X56354094Y-139087647D01*
X56441571Y-139064208D01*
X56542930Y-139005689D01*
X56625689Y-138922930D01*
X56684208Y-138821571D01*
X56707647Y-138734094D01*
X57322268Y-139348715D01*
X57349362Y-139311425D01*
X57439542Y-139134437D01*
X57500924Y-138945523D01*
X57500924Y-138945520D01*
X57532000Y-138749321D01*
X57532000Y-138550678D01*
X57500924Y-138354479D01*
X57500924Y-138354476D01*
X57439542Y-138165562D01*
X57349358Y-137988567D01*
X57322268Y-137951283D01*
X56707647Y-138565904D01*
X56684208Y-138478429D01*
X56625689Y-138377070D01*
X56542930Y-138294311D01*
X56441571Y-138235792D01*
X56354093Y-138212352D01*
X56973639Y-137592807D01*
X56909692Y-137528860D01*
X56909691Y-137528860D01*
X56233052Y-138205500D01*
X56211480Y-138205500D01*
X56098429Y-138235792D01*
X55997070Y-138294311D01*
X55914311Y-138377070D01*
X55855792Y-138478429D01*
X55825500Y-138591480D01*
X55825500Y-138613051D01*
X55788553Y-138649999D01*
X55135049Y-138649999D01*
X55138741Y-138633025D01*
X55140627Y-138606666D01*
X55146445Y-138597612D01*
X55147977Y-138590573D01*
X55169128Y-138562319D01*
X56343447Y-137388000D01*
X55199500Y-137388000D01*
X55190814Y-137385449D01*
X55181853Y-137386738D01*
X55157812Y-137375759D01*
X55132461Y-137368315D01*
X55126533Y-137361474D01*
X55118297Y-137357713D01*
X55104007Y-137335478D01*
X55086706Y-137315511D01*
X55084418Y-137304996D01*
X55080523Y-137298935D01*
X55075500Y-137264000D01*
X55075500Y-137146500D01*
X55095185Y-137079461D01*
X55147989Y-137033706D01*
X55199500Y-137022500D01*
X56543825Y-137022500D01*
X56543826Y-137022500D01*
X56569150Y-137019562D01*
X56672745Y-136973820D01*
X56752820Y-136893745D01*
X56752820Y-136893744D01*
X56760946Y-136885619D01*
X56761532Y-136886205D01*
X56783951Y-136864041D01*
X56851685Y-136818785D01*
X56978785Y-136691685D01*
X57078647Y-136542231D01*
X57147433Y-136376166D01*
X57182500Y-136199873D01*
X57182500Y-136020127D01*
X57182500Y-136020124D01*
X57182499Y-136020122D01*
X57147435Y-135843841D01*
X57147432Y-135843832D01*
X57145284Y-135838646D01*
X57137817Y-135769176D01*
X57169093Y-135706698D01*
X57172136Y-135703544D01*
X57297204Y-135578476D01*
X57909500Y-135578476D01*
X57909500Y-136641523D01*
X57924352Y-136735298D01*
X57924353Y-136735301D01*
X57924354Y-136735303D01*
X57981950Y-136848342D01*
X57981951Y-136848343D01*
X57981954Y-136848347D01*
X58071652Y-136938045D01*
X58071656Y-136938048D01*
X58071658Y-136938050D01*
X58184697Y-136995646D01*
X58184699Y-136995646D01*
X58184701Y-136995647D01*
X58278477Y-137010500D01*
X58278482Y-137010500D01*
X59341523Y-137010500D01*
X59435298Y-136995647D01*
X59435298Y-136995646D01*
X59435303Y-136995646D01*
X59548342Y-136938050D01*
X59638050Y-136848342D01*
X59695646Y-136735303D01*
X59702554Y-136691688D01*
X59710500Y-136641523D01*
X59710500Y-135578476D01*
X68069500Y-135578476D01*
X68069500Y-136641523D01*
X68084352Y-136735298D01*
X68084353Y-136735301D01*
X68084354Y-136735303D01*
X68141950Y-136848342D01*
X68141951Y-136848343D01*
X68141954Y-136848347D01*
X68231652Y-136938045D01*
X68231656Y-136938048D01*
X68231658Y-136938050D01*
X68344697Y-136995646D01*
X68344699Y-136995646D01*
X68344701Y-136995647D01*
X68438477Y-137010500D01*
X68438482Y-137010500D01*
X69501523Y-137010500D01*
X69595298Y-136995647D01*
X69595298Y-136995646D01*
X69595303Y-136995646D01*
X69708342Y-136938050D01*
X69798050Y-136848342D01*
X69855646Y-136735303D01*
X69862554Y-136691688D01*
X69870500Y-136641523D01*
X69870500Y-135578476D01*
X69855647Y-135484701D01*
X69855646Y-135484699D01*
X69855646Y-135484697D01*
X69798050Y-135371658D01*
X69798048Y-135371656D01*
X69798045Y-135371652D01*
X69708347Y-135281954D01*
X69708343Y-135281951D01*
X69708342Y-135281950D01*
X69595303Y-135224354D01*
X69595301Y-135224353D01*
X69595298Y-135224352D01*
X69501523Y-135209500D01*
X69501518Y-135209500D01*
X68438482Y-135209500D01*
X68438477Y-135209500D01*
X68344701Y-135224352D01*
X68231656Y-135281951D01*
X68231652Y-135281954D01*
X68141954Y-135371652D01*
X68141951Y-135371656D01*
X68084352Y-135484701D01*
X68069500Y-135578476D01*
X59710500Y-135578476D01*
X59695647Y-135484701D01*
X59695646Y-135484699D01*
X59695646Y-135484697D01*
X59638050Y-135371658D01*
X59638048Y-135371656D01*
X59638045Y-135371652D01*
X59548347Y-135281954D01*
X59548343Y-135281951D01*
X59548342Y-135281950D01*
X59435303Y-135224354D01*
X59435301Y-135224353D01*
X59435298Y-135224352D01*
X59341523Y-135209500D01*
X59341518Y-135209500D01*
X58278482Y-135209500D01*
X58278477Y-135209500D01*
X58184701Y-135224352D01*
X58071656Y-135281951D01*
X58071652Y-135281954D01*
X57981954Y-135371652D01*
X57981951Y-135371656D01*
X57924352Y-135484701D01*
X57909500Y-135578476D01*
X57297204Y-135578476D01*
X59399302Y-133476379D01*
X60399500Y-133476379D01*
X60399500Y-133663620D01*
X60436025Y-133847243D01*
X60436027Y-133847251D01*
X60507676Y-134020228D01*
X60507681Y-134020237D01*
X60611697Y-134175907D01*
X60611700Y-134175911D01*
X60744088Y-134308299D01*
X60744092Y-134308302D01*
X60899762Y-134412318D01*
X60899768Y-134412321D01*
X60899769Y-134412322D01*
X61072749Y-134483973D01*
X61256379Y-134520499D01*
X61256383Y-134520500D01*
X61256384Y-134520500D01*
X61443617Y-134520500D01*
X61443618Y-134520499D01*
X61627251Y-134483973D01*
X61800231Y-134412322D01*
X61955908Y-134308302D01*
X62088302Y-134175908D01*
X62192322Y-134020231D01*
X62263973Y-133847251D01*
X62300500Y-133663616D01*
X62300500Y-133476384D01*
X62300499Y-133476379D01*
X65479500Y-133476379D01*
X65479500Y-133663620D01*
X65516025Y-133847243D01*
X65516027Y-133847251D01*
X65587676Y-134020228D01*
X65587681Y-134020237D01*
X65691697Y-134175907D01*
X65691700Y-134175911D01*
X65824088Y-134308299D01*
X65824092Y-134308302D01*
X65979762Y-134412318D01*
X65979768Y-134412321D01*
X65979769Y-134412322D01*
X66152749Y-134483973D01*
X66336379Y-134520499D01*
X66336383Y-134520500D01*
X66336384Y-134520500D01*
X66523617Y-134520500D01*
X66523618Y-134520499D01*
X66707251Y-134483973D01*
X66880231Y-134412322D01*
X67035908Y-134308302D01*
X67168302Y-134175908D01*
X67272322Y-134020231D01*
X67343973Y-133847251D01*
X67380500Y-133663616D01*
X67380500Y-133476384D01*
X67343973Y-133292749D01*
X67272322Y-133119769D01*
X67272321Y-133119768D01*
X67272318Y-133119762D01*
X67168302Y-132964092D01*
X67168299Y-132964088D01*
X67035911Y-132831700D01*
X67035907Y-132831697D01*
X66880237Y-132727681D01*
X66880228Y-132727676D01*
X66707251Y-132656027D01*
X66707243Y-132656025D01*
X66523620Y-132619500D01*
X66523616Y-132619500D01*
X66336384Y-132619500D01*
X66336379Y-132619500D01*
X66152756Y-132656025D01*
X66152748Y-132656027D01*
X65979771Y-132727676D01*
X65979762Y-132727681D01*
X65824092Y-132831697D01*
X65824088Y-132831700D01*
X65691700Y-132964088D01*
X65691697Y-132964092D01*
X65587681Y-133119762D01*
X65587676Y-133119771D01*
X65516027Y-133292748D01*
X65516025Y-133292756D01*
X65479500Y-133476379D01*
X62300499Y-133476379D01*
X62263973Y-133292749D01*
X62192322Y-133119769D01*
X62192321Y-133119768D01*
X62192318Y-133119762D01*
X62088302Y-132964092D01*
X62088299Y-132964088D01*
X61955911Y-132831700D01*
X61955907Y-132831697D01*
X61800237Y-132727681D01*
X61800228Y-132727676D01*
X61627251Y-132656027D01*
X61627243Y-132656025D01*
X61443620Y-132619500D01*
X61443616Y-132619500D01*
X61256384Y-132619500D01*
X61256379Y-132619500D01*
X61072756Y-132656025D01*
X61072748Y-132656027D01*
X60899771Y-132727676D01*
X60899762Y-132727681D01*
X60744092Y-132831697D01*
X60744088Y-132831700D01*
X60611700Y-132964088D01*
X60611697Y-132964092D01*
X60507681Y-133119762D01*
X60507676Y-133119771D01*
X60436027Y-133292748D01*
X60436025Y-133292756D01*
X60399500Y-133476379D01*
X59399302Y-133476379D01*
X61630470Y-131245212D01*
X61676614Y-131165288D01*
X61700500Y-131076144D01*
X61700500Y-127262366D01*
X61720185Y-127195327D01*
X61771275Y-127151057D01*
X61771181Y-127150881D01*
X61771956Y-127150466D01*
X61772989Y-127149572D01*
X61776445Y-127148067D01*
X61776543Y-127148014D01*
X61776547Y-127148013D01*
X61924035Y-127049464D01*
X62049464Y-126924035D01*
X62148013Y-126776547D01*
X62215894Y-126612666D01*
X62217454Y-126604826D01*
X62250499Y-126438695D01*
X62250500Y-126438693D01*
X62250500Y-125461313D01*
X62250498Y-125461297D01*
X62248573Y-125451617D01*
X62640000Y-125451617D01*
X62640000Y-125700000D01*
X63456988Y-125700000D01*
X63424075Y-125757007D01*
X63390000Y-125884174D01*
X63390000Y-126015826D01*
X63424075Y-126142993D01*
X63456988Y-126200000D01*
X62640000Y-126200000D01*
X62640000Y-126448382D01*
X62670778Y-126642705D01*
X62731581Y-126829835D01*
X62820904Y-127005143D01*
X62936555Y-127164321D01*
X63075678Y-127303444D01*
X63234856Y-127419095D01*
X63410162Y-127508418D01*
X63597283Y-127569218D01*
X63640000Y-127575984D01*
X63640000Y-126383012D01*
X63697007Y-126415925D01*
X63824174Y-126450000D01*
X63955826Y-126450000D01*
X64082993Y-126415925D01*
X64140000Y-126383012D01*
X64140000Y-127575983D01*
X64182716Y-127569218D01*
X64369837Y-127508418D01*
X64545143Y-127419095D01*
X64704321Y-127303444D01*
X64843444Y-127164321D01*
X64879408Y-127114822D01*
X65529499Y-127114822D01*
X65538231Y-127158717D01*
X65538234Y-127158724D01*
X65562691Y-127195327D01*
X65571496Y-127208504D01*
X65621278Y-127241767D01*
X65621281Y-127241767D01*
X65621282Y-127241768D01*
X65665177Y-127250500D01*
X65665180Y-127250500D01*
X67194822Y-127250500D01*
X67238717Y-127241768D01*
X67238717Y-127241767D01*
X67238722Y-127241767D01*
X67288504Y-127208504D01*
X67321767Y-127158722D01*
X67323587Y-127149572D01*
X67330500Y-127114822D01*
X67330500Y-124785177D01*
X67321768Y-124741282D01*
X67321767Y-124741281D01*
X67321767Y-124741278D01*
X67288504Y-124691496D01*
X67277440Y-124684103D01*
X67238724Y-124658234D01*
X67238717Y-124658231D01*
X67194822Y-124649500D01*
X67194820Y-124649500D01*
X65665180Y-124649500D01*
X65665178Y-124649500D01*
X65621282Y-124658231D01*
X65621275Y-124658234D01*
X65571496Y-124691495D01*
X65571495Y-124691496D01*
X65538234Y-124741275D01*
X65538231Y-124741282D01*
X65529500Y-124785177D01*
X65529500Y-124785180D01*
X65529500Y-127114820D01*
X65529500Y-127114822D01*
X65529499Y-127114822D01*
X64879408Y-127114822D01*
X64959095Y-127005143D01*
X65048418Y-126829835D01*
X65109221Y-126642705D01*
X65140000Y-126448382D01*
X65140000Y-126200000D01*
X64323012Y-126200000D01*
X64355925Y-126142993D01*
X64390000Y-126015826D01*
X64390000Y-125884174D01*
X64355925Y-125757007D01*
X64323012Y-125700000D01*
X65140000Y-125700000D01*
X65140000Y-125451617D01*
X65109221Y-125257294D01*
X65048418Y-125070164D01*
X64959093Y-124894852D01*
X64927942Y-124851977D01*
X64927939Y-124851974D01*
X64843444Y-124735678D01*
X64704321Y-124596555D01*
X64545143Y-124480904D01*
X64369835Y-124391581D01*
X64182705Y-124330778D01*
X64140000Y-124324014D01*
X64140000Y-125516988D01*
X64082993Y-125484075D01*
X63955826Y-125450000D01*
X63824174Y-125450000D01*
X63697007Y-125484075D01*
X63640000Y-125516988D01*
X63640000Y-124324014D01*
X63639999Y-124324014D01*
X63597294Y-124330778D01*
X63410164Y-124391581D01*
X63234856Y-124480904D01*
X63075678Y-124596555D01*
X62936555Y-124735678D01*
X62820904Y-124894856D01*
X62731581Y-125070164D01*
X62670778Y-125257294D01*
X62640000Y-125451617D01*
X62248573Y-125451617D01*
X62215896Y-125287341D01*
X62215893Y-125287332D01*
X62148016Y-125123459D01*
X62148009Y-125123446D01*
X62049464Y-124975965D01*
X62049461Y-124975961D01*
X61924038Y-124850538D01*
X61924034Y-124850535D01*
X61776553Y-124751990D01*
X61776540Y-124751983D01*
X61612667Y-124684106D01*
X61612658Y-124684103D01*
X61438694Y-124649500D01*
X61438691Y-124649500D01*
X61261309Y-124649500D01*
X61261306Y-124649500D01*
X61087341Y-124684103D01*
X61087332Y-124684106D01*
X60923459Y-124751983D01*
X60923446Y-124751990D01*
X60775965Y-124850535D01*
X60775961Y-124850538D01*
X60650538Y-124975961D01*
X60650535Y-124975965D01*
X60551990Y-125123446D01*
X60551983Y-125123459D01*
X60484106Y-125287332D01*
X60484103Y-125287341D01*
X60449500Y-125461304D01*
X60449500Y-126438695D01*
X60484103Y-126612658D01*
X60484106Y-126612667D01*
X60551983Y-126776540D01*
X60551990Y-126776553D01*
X60650535Y-126924034D01*
X60650538Y-126924038D01*
X60775961Y-127049461D01*
X60775965Y-127049464D01*
X60923449Y-127148011D01*
X60928819Y-127150881D01*
X60928200Y-127152038D01*
X60977348Y-127191635D01*
X60999420Y-127257926D01*
X60999500Y-127262366D01*
X60999500Y-130833455D01*
X60979815Y-130900494D01*
X60963181Y-130921136D01*
X56708800Y-135175516D01*
X56647477Y-135209001D01*
X56577785Y-135204017D01*
X56571030Y-135201268D01*
X56569151Y-135200438D01*
X56543827Y-135197500D01*
X56543826Y-135197500D01*
X55199500Y-135197500D01*
X55132461Y-135177815D01*
X55086706Y-135125011D01*
X55075500Y-135073500D01*
X55075500Y-134606500D01*
X55095185Y-134539461D01*
X55147989Y-134493706D01*
X55199500Y-134482500D01*
X56543825Y-134482500D01*
X56543826Y-134482500D01*
X56569150Y-134479562D01*
X56672745Y-134433820D01*
X56752820Y-134353745D01*
X56752820Y-134353744D01*
X56760946Y-134345619D01*
X56761532Y-134346205D01*
X56783951Y-134324041D01*
X56851685Y-134278785D01*
X56978785Y-134151685D01*
X57078647Y-134002231D01*
X57147433Y-133836166D01*
X57182500Y-133659873D01*
X57182500Y-133480127D01*
X57182500Y-133480124D01*
X57182499Y-133480122D01*
X57147434Y-133303841D01*
X57147433Y-133303834D01*
X57142844Y-133292756D01*
X57078650Y-133137775D01*
X57078643Y-133137762D01*
X56978785Y-132988315D01*
X56978782Y-132988311D01*
X56851688Y-132861217D01*
X56851680Y-132861211D01*
X56783954Y-132815958D01*
X56761533Y-132793793D01*
X56760946Y-132794381D01*
X56752820Y-132786255D01*
X56672745Y-132706180D01*
X56639597Y-132691543D01*
X56569151Y-132660438D01*
X56543827Y-132657500D01*
X56543826Y-132657500D01*
X55199500Y-132657500D01*
X55132461Y-132637815D01*
X55086706Y-132585011D01*
X55075500Y-132533500D01*
X55075500Y-132066500D01*
X55095185Y-131999461D01*
X55147989Y-131953706D01*
X55199500Y-131942500D01*
X56543825Y-131942500D01*
X56543826Y-131942500D01*
X56569150Y-131939562D01*
X56672745Y-131893820D01*
X56752820Y-131813745D01*
X56752820Y-131813744D01*
X56760946Y-131805619D01*
X56761532Y-131806205D01*
X56783951Y-131784041D01*
X56851685Y-131738785D01*
X56978785Y-131611685D01*
X57078647Y-131462231D01*
X57147433Y-131296166D01*
X57182500Y-131119873D01*
X57182500Y-130940127D01*
X57182500Y-130940124D01*
X57182499Y-130940122D01*
X57171498Y-130884818D01*
X57147433Y-130763834D01*
X57147431Y-130763829D01*
X57078650Y-130597775D01*
X57078643Y-130597762D01*
X56978785Y-130448315D01*
X56978782Y-130448311D01*
X56851688Y-130321217D01*
X56851680Y-130321211D01*
X56783954Y-130275958D01*
X56761533Y-130253793D01*
X56760946Y-130254381D01*
X56752820Y-130246255D01*
X56672745Y-130166180D01*
X56639597Y-130151543D01*
X56569151Y-130120438D01*
X56543827Y-130117500D01*
X56543826Y-130117500D01*
X55199500Y-130117500D01*
X55132461Y-130097815D01*
X55086706Y-130045011D01*
X55075500Y-129993500D01*
X55075500Y-129526500D01*
X55095185Y-129459461D01*
X55147989Y-129413706D01*
X55199500Y-129402500D01*
X56543825Y-129402500D01*
X56543826Y-129402500D01*
X56569150Y-129399562D01*
X56672745Y-129353820D01*
X56752820Y-129273745D01*
X56752820Y-129273744D01*
X56760946Y-129265619D01*
X56761532Y-129266205D01*
X56783951Y-129244041D01*
X56851685Y-129198785D01*
X56978785Y-129071685D01*
X57078647Y-128922231D01*
X57147433Y-128756166D01*
X57182500Y-128579873D01*
X57182500Y-128400127D01*
X57182500Y-128400124D01*
X57182499Y-128400122D01*
X57147434Y-128223841D01*
X57147433Y-128223834D01*
X57147431Y-128223829D01*
X57078650Y-128057775D01*
X57078643Y-128057762D01*
X56978785Y-127908315D01*
X56978782Y-127908311D01*
X56851688Y-127781217D01*
X56851680Y-127781211D01*
X56783954Y-127735958D01*
X56761533Y-127713793D01*
X56760946Y-127714381D01*
X56752820Y-127706255D01*
X56672745Y-127626180D01*
X56639597Y-127611543D01*
X56569151Y-127580438D01*
X56543827Y-127577500D01*
X56543826Y-127577500D01*
X55199500Y-127577500D01*
X55132461Y-127557815D01*
X55086706Y-127505011D01*
X55075500Y-127453500D01*
X55075500Y-126986500D01*
X55095185Y-126919461D01*
X55147989Y-126873706D01*
X55199500Y-126862500D01*
X56543825Y-126862500D01*
X56543826Y-126862500D01*
X56569150Y-126859562D01*
X56672745Y-126813820D01*
X56752820Y-126733745D01*
X56752820Y-126733744D01*
X56760946Y-126725619D01*
X56761532Y-126726205D01*
X56783951Y-126704041D01*
X56851685Y-126658785D01*
X56978785Y-126531685D01*
X57078647Y-126382231D01*
X57147433Y-126216166D01*
X57182500Y-126039873D01*
X57182500Y-125860127D01*
X57182500Y-125860124D01*
X57182499Y-125860122D01*
X57161988Y-125757007D01*
X57147433Y-125683834D01*
X57130516Y-125642993D01*
X57078650Y-125517775D01*
X57078643Y-125517762D01*
X56978785Y-125368315D01*
X56978782Y-125368311D01*
X56851688Y-125241217D01*
X56851680Y-125241211D01*
X56783954Y-125195958D01*
X56761533Y-125173793D01*
X56760946Y-125174381D01*
X56752820Y-125166255D01*
X56672745Y-125086180D01*
X56639597Y-125071543D01*
X56569151Y-125040438D01*
X56543827Y-125037500D01*
X56543826Y-125037500D01*
X55199500Y-125037500D01*
X55132461Y-125017815D01*
X55086706Y-124965011D01*
X55075500Y-124913500D01*
X55075500Y-120770836D01*
X60730000Y-120770836D01*
X60730000Y-120969163D01*
X60761026Y-121165052D01*
X60822310Y-121353669D01*
X60822311Y-121353672D01*
X60912350Y-121530380D01*
X60939161Y-121567283D01*
X61610000Y-120896445D01*
X61610000Y-120920028D01*
X61635896Y-121016675D01*
X61685924Y-121103325D01*
X61756675Y-121174076D01*
X61843325Y-121224104D01*
X61939972Y-121250000D01*
X61963553Y-121250000D01*
X61292714Y-121920837D01*
X61292715Y-121920838D01*
X61329612Y-121947645D01*
X61506327Y-122037688D01*
X61506330Y-122037689D01*
X61694947Y-122098973D01*
X61890837Y-122130000D01*
X62089163Y-122130000D01*
X62285052Y-122098973D01*
X62473669Y-122037689D01*
X62473672Y-122037688D01*
X62650382Y-121947648D01*
X62687283Y-121920837D01*
X62687284Y-121920836D01*
X62016448Y-121250000D01*
X62040028Y-121250000D01*
X62136675Y-121224104D01*
X62223325Y-121174076D01*
X62294076Y-121103325D01*
X62344104Y-121016675D01*
X62370000Y-120920028D01*
X62370000Y-120896447D01*
X63040836Y-121567284D01*
X63040837Y-121567283D01*
X63067648Y-121530382D01*
X63157688Y-121353672D01*
X63157689Y-121353669D01*
X63218973Y-121165052D01*
X63250000Y-120969163D01*
X63250000Y-120780319D01*
X63619500Y-120780319D01*
X63619500Y-120959680D01*
X63654487Y-121135575D01*
X63654490Y-121135584D01*
X63723121Y-121301277D01*
X63723128Y-121301290D01*
X63822767Y-121450409D01*
X63822770Y-121450413D01*
X63949586Y-121577229D01*
X63949590Y-121577232D01*
X64098709Y-121676871D01*
X64098722Y-121676878D01*
X64222991Y-121728351D01*
X64264417Y-121745510D01*
X64264419Y-121745510D01*
X64264424Y-121745512D01*
X64440319Y-121780499D01*
X64440323Y-121780500D01*
X64440324Y-121780500D01*
X64619677Y-121780500D01*
X64619678Y-121780499D01*
X64678311Y-121768836D01*
X64795575Y-121745512D01*
X64795578Y-121745510D01*
X64795583Y-121745510D01*
X64961284Y-121676875D01*
X65110410Y-121577232D01*
X65237232Y-121450410D01*
X65336875Y-121301284D01*
X65405510Y-121135583D01*
X65440500Y-120959676D01*
X65440500Y-120780324D01*
X65411927Y-120636675D01*
X65405512Y-120604424D01*
X65405509Y-120604415D01*
X65336878Y-120438722D01*
X65336871Y-120438709D01*
X65305995Y-120392500D01*
X65263214Y-120328475D01*
X66159500Y-120328475D01*
X66159500Y-121411517D01*
X66170292Y-121479657D01*
X66174354Y-121505304D01*
X66231950Y-121618342D01*
X66231952Y-121618344D01*
X66231954Y-121618347D01*
X66321652Y-121708045D01*
X66321654Y-121708046D01*
X66321658Y-121708050D01*
X66434694Y-121765645D01*
X66434698Y-121765647D01*
X66528475Y-121780499D01*
X66528481Y-121780500D01*
X67611518Y-121780499D01*
X67705304Y-121765646D01*
X67818342Y-121708050D01*
X67908050Y-121618342D01*
X67965646Y-121505304D01*
X67965646Y-121505302D01*
X67965647Y-121505301D01*
X67980499Y-121411524D01*
X67980500Y-121411519D01*
X67980499Y-120328482D01*
X67965646Y-120234696D01*
X67908050Y-120121658D01*
X67908046Y-120121654D01*
X67908045Y-120121652D01*
X67818347Y-120031954D01*
X67818344Y-120031952D01*
X67818342Y-120031950D01*
X67741517Y-119992805D01*
X67705301Y-119974352D01*
X67611524Y-119959500D01*
X66528482Y-119959500D01*
X66447519Y-119972323D01*
X66434696Y-119974354D01*
X66321658Y-120031950D01*
X66321657Y-120031951D01*
X66321652Y-120031954D01*
X66231954Y-120121652D01*
X66231951Y-120121657D01*
X66174352Y-120234698D01*
X66159500Y-120328475D01*
X65263214Y-120328475D01*
X65237232Y-120289590D01*
X65237229Y-120289586D01*
X65110413Y-120162770D01*
X65110409Y-120162767D01*
X64961290Y-120063128D01*
X64961277Y-120063121D01*
X64795584Y-119994490D01*
X64795575Y-119994487D01*
X64619680Y-119959500D01*
X64619676Y-119959500D01*
X64440324Y-119959500D01*
X64440319Y-119959500D01*
X64264424Y-119994487D01*
X64264415Y-119994490D01*
X64098722Y-120063121D01*
X64098709Y-120063128D01*
X63949590Y-120162767D01*
X63949586Y-120162770D01*
X63822770Y-120289586D01*
X63822767Y-120289590D01*
X63723128Y-120438709D01*
X63723121Y-120438722D01*
X63654490Y-120604415D01*
X63654487Y-120604424D01*
X63619500Y-120780319D01*
X63250000Y-120780319D01*
X63250000Y-120770836D01*
X63218973Y-120574947D01*
X63157689Y-120386330D01*
X63157688Y-120386327D01*
X63067645Y-120209612D01*
X63040838Y-120172715D01*
X63040837Y-120172714D01*
X62370000Y-120843551D01*
X62370000Y-120819972D01*
X62344104Y-120723325D01*
X62294076Y-120636675D01*
X62223325Y-120565924D01*
X62136675Y-120515896D01*
X62040028Y-120490000D01*
X62016447Y-120490000D01*
X62687283Y-119819161D01*
X62650380Y-119792350D01*
X62473672Y-119702311D01*
X62473669Y-119702310D01*
X62285052Y-119641026D01*
X62089163Y-119610000D01*
X61890837Y-119610000D01*
X61694947Y-119641026D01*
X61506330Y-119702310D01*
X61506322Y-119702313D01*
X61329615Y-119792352D01*
X61292715Y-119819160D01*
X61292715Y-119819161D01*
X61963554Y-120490000D01*
X61939972Y-120490000D01*
X61843325Y-120515896D01*
X61756675Y-120565924D01*
X61685924Y-120636675D01*
X61635896Y-120723325D01*
X61610000Y-120819972D01*
X61610000Y-120843554D01*
X60939161Y-120172715D01*
X60939160Y-120172715D01*
X60912352Y-120209615D01*
X60822313Y-120386322D01*
X60822310Y-120386330D01*
X60761026Y-120574947D01*
X60730000Y-120770836D01*
X55075500Y-120770836D01*
X55075500Y-118240319D01*
X59809500Y-118240319D01*
X59809500Y-118419680D01*
X59844487Y-118595575D01*
X59844490Y-118595584D01*
X59913121Y-118761277D01*
X59913128Y-118761290D01*
X60012767Y-118910409D01*
X60012770Y-118910413D01*
X60139586Y-119037229D01*
X60139590Y-119037232D01*
X60288709Y-119136871D01*
X60288722Y-119136878D01*
X60412991Y-119188351D01*
X60454417Y-119205510D01*
X60454419Y-119205510D01*
X60454424Y-119205512D01*
X60630319Y-119240499D01*
X60630323Y-119240500D01*
X60630324Y-119240500D01*
X60809677Y-119240500D01*
X60809678Y-119240499D01*
X60868311Y-119228836D01*
X60985575Y-119205512D01*
X60985578Y-119205510D01*
X60985583Y-119205510D01*
X61151284Y-119136875D01*
X61300410Y-119037232D01*
X61427232Y-118910410D01*
X61526875Y-118761284D01*
X61595510Y-118595583D01*
X61630500Y-118419676D01*
X61630500Y-118240324D01*
X61630499Y-118240319D01*
X62349500Y-118240319D01*
X62349500Y-118419680D01*
X62384487Y-118595575D01*
X62384490Y-118595584D01*
X62453121Y-118761277D01*
X62453128Y-118761290D01*
X62552767Y-118910409D01*
X62552770Y-118910413D01*
X62679586Y-119037229D01*
X62679590Y-119037232D01*
X62828709Y-119136871D01*
X62828722Y-119136878D01*
X62952991Y-119188351D01*
X62994417Y-119205510D01*
X62994419Y-119205510D01*
X62994424Y-119205512D01*
X63170319Y-119240499D01*
X63170323Y-119240500D01*
X63170324Y-119240500D01*
X63349677Y-119240500D01*
X63349678Y-119240499D01*
X63408311Y-119228836D01*
X63525575Y-119205512D01*
X63525578Y-119205510D01*
X63525583Y-119205510D01*
X63691284Y-119136875D01*
X63840410Y-119037232D01*
X63967232Y-118910410D01*
X64066875Y-118761284D01*
X64135510Y-118595583D01*
X64170500Y-118419676D01*
X64170500Y-118240324D01*
X64170499Y-118240319D01*
X64889500Y-118240319D01*
X64889500Y-118419680D01*
X64924487Y-118595575D01*
X64924490Y-118595584D01*
X64993121Y-118761277D01*
X64993128Y-118761290D01*
X65092767Y-118910409D01*
X65092770Y-118910413D01*
X65219586Y-119037229D01*
X65219590Y-119037232D01*
X65368709Y-119136871D01*
X65368722Y-119136878D01*
X65492991Y-119188351D01*
X65534417Y-119205510D01*
X65534419Y-119205510D01*
X65534424Y-119205512D01*
X65710319Y-119240499D01*
X65710323Y-119240500D01*
X65710324Y-119240500D01*
X65889677Y-119240500D01*
X65889678Y-119240499D01*
X65948311Y-119228836D01*
X66065575Y-119205512D01*
X66065578Y-119205510D01*
X66065583Y-119205510D01*
X66231284Y-119136875D01*
X66380410Y-119037232D01*
X66507232Y-118910410D01*
X66606875Y-118761284D01*
X66675510Y-118595583D01*
X66710500Y-118419676D01*
X66710500Y-118240324D01*
X66710188Y-118238758D01*
X66675512Y-118064424D01*
X66675509Y-118064415D01*
X66606878Y-117898722D01*
X66606871Y-117898709D01*
X66507232Y-117749590D01*
X66507229Y-117749586D01*
X66380413Y-117622770D01*
X66380409Y-117622767D01*
X66231290Y-117523128D01*
X66231277Y-117523121D01*
X66065584Y-117454490D01*
X66065575Y-117454487D01*
X65889680Y-117419500D01*
X65889676Y-117419500D01*
X65710324Y-117419500D01*
X65710319Y-117419500D01*
X65534424Y-117454487D01*
X65534415Y-117454490D01*
X65368722Y-117523121D01*
X65368709Y-117523128D01*
X65219590Y-117622767D01*
X65219586Y-117622770D01*
X65092770Y-117749586D01*
X65092767Y-117749590D01*
X64993128Y-117898709D01*
X64993121Y-117898722D01*
X64924490Y-118064415D01*
X64924487Y-118064424D01*
X64889500Y-118240319D01*
X64170499Y-118240319D01*
X64170188Y-118238758D01*
X64135512Y-118064424D01*
X64135509Y-118064415D01*
X64066878Y-117898722D01*
X64066871Y-117898709D01*
X63967232Y-117749590D01*
X63967229Y-117749586D01*
X63840413Y-117622770D01*
X63840409Y-117622767D01*
X63691290Y-117523128D01*
X63691277Y-117523121D01*
X63525584Y-117454490D01*
X63525575Y-117454487D01*
X63349680Y-117419500D01*
X63349676Y-117419500D01*
X63170324Y-117419500D01*
X63170319Y-117419500D01*
X62994424Y-117454487D01*
X62994415Y-117454490D01*
X62828722Y-117523121D01*
X62828709Y-117523128D01*
X62679590Y-117622767D01*
X62679586Y-117622770D01*
X62552770Y-117749586D01*
X62552767Y-117749590D01*
X62453128Y-117898709D01*
X62453121Y-117898722D01*
X62384490Y-118064415D01*
X62384487Y-118064424D01*
X62349500Y-118240319D01*
X61630499Y-118240319D01*
X61630188Y-118238758D01*
X61595512Y-118064424D01*
X61595509Y-118064415D01*
X61526878Y-117898722D01*
X61526871Y-117898709D01*
X61427232Y-117749590D01*
X61427229Y-117749586D01*
X61300413Y-117622770D01*
X61300409Y-117622767D01*
X61151290Y-117523128D01*
X61151277Y-117523121D01*
X60985584Y-117454490D01*
X60985575Y-117454487D01*
X60809680Y-117419500D01*
X60809676Y-117419500D01*
X60630324Y-117419500D01*
X60630319Y-117419500D01*
X60454424Y-117454487D01*
X60454415Y-117454490D01*
X60288722Y-117523121D01*
X60288709Y-117523128D01*
X60139590Y-117622767D01*
X60139586Y-117622770D01*
X60012770Y-117749586D01*
X60012767Y-117749590D01*
X59913128Y-117898709D01*
X59913121Y-117898722D01*
X59844490Y-118064415D01*
X59844487Y-118064424D01*
X59809500Y-118240319D01*
X55075500Y-118240319D01*
X55075500Y-111852070D01*
X57184500Y-111852070D01*
X57184500Y-112107929D01*
X57224526Y-112360640D01*
X57303588Y-112603972D01*
X57303589Y-112603975D01*
X57419750Y-112831950D01*
X57570132Y-113038935D01*
X57570136Y-113038940D01*
X57751059Y-113219863D01*
X57751064Y-113219867D01*
X57931607Y-113351038D01*
X57958053Y-113370252D01*
X58107080Y-113446185D01*
X58186024Y-113486410D01*
X58186027Y-113486411D01*
X58307693Y-113525942D01*
X58429361Y-113565474D01*
X58682070Y-113605500D01*
X58682071Y-113605500D01*
X58937929Y-113605500D01*
X58937930Y-113605500D01*
X59190639Y-113565474D01*
X59433975Y-113486410D01*
X59661947Y-113370252D01*
X59868942Y-113219862D01*
X60049862Y-113038942D01*
X60200252Y-112831947D01*
X60316410Y-112603975D01*
X60395474Y-112360639D01*
X60435500Y-112107930D01*
X60435500Y-111852070D01*
X67344500Y-111852070D01*
X67344500Y-112107929D01*
X67384526Y-112360640D01*
X67463588Y-112603972D01*
X67463589Y-112603975D01*
X67579750Y-112831950D01*
X67730132Y-113038935D01*
X67730136Y-113038940D01*
X67911059Y-113219863D01*
X67911064Y-113219867D01*
X68091607Y-113351038D01*
X68118053Y-113370252D01*
X68267080Y-113446185D01*
X68346024Y-113486410D01*
X68346027Y-113486411D01*
X68467693Y-113525942D01*
X68589361Y-113565474D01*
X68842070Y-113605500D01*
X68842071Y-113605500D01*
X69097929Y-113605500D01*
X69097930Y-113605500D01*
X69350639Y-113565474D01*
X69593975Y-113486410D01*
X69821947Y-113370252D01*
X70028942Y-113219862D01*
X70209862Y-113038942D01*
X70360252Y-112831947D01*
X70476410Y-112603975D01*
X70555474Y-112360639D01*
X70595500Y-112107930D01*
X70595500Y-111852070D01*
X70555474Y-111599361D01*
X70476410Y-111356025D01*
X70476410Y-111356024D01*
X70395316Y-111196870D01*
X70360252Y-111128053D01*
X70224981Y-110941867D01*
X70209867Y-110921064D01*
X70209863Y-110921059D01*
X70028940Y-110740136D01*
X70028935Y-110740132D01*
X69821950Y-110589750D01*
X69821949Y-110589749D01*
X69821947Y-110589748D01*
X69748910Y-110552533D01*
X69593975Y-110473589D01*
X69593972Y-110473588D01*
X69350640Y-110394526D01*
X69224284Y-110374513D01*
X69097930Y-110354500D01*
X68842070Y-110354500D01*
X68757833Y-110367842D01*
X68589359Y-110394526D01*
X68346027Y-110473588D01*
X68346024Y-110473589D01*
X68118049Y-110589750D01*
X67911064Y-110740132D01*
X67911059Y-110740136D01*
X67730136Y-110921059D01*
X67730132Y-110921064D01*
X67579750Y-111128049D01*
X67463589Y-111356024D01*
X67463588Y-111356027D01*
X67384526Y-111599359D01*
X67344500Y-111852070D01*
X60435500Y-111852070D01*
X60395474Y-111599361D01*
X60316410Y-111356025D01*
X60316410Y-111356024D01*
X60235316Y-111196870D01*
X60200252Y-111128053D01*
X60064981Y-110941867D01*
X60049867Y-110921064D01*
X60049863Y-110921059D01*
X59868940Y-110740136D01*
X59868935Y-110740132D01*
X59661950Y-110589750D01*
X59661949Y-110589749D01*
X59661947Y-110589748D01*
X59588910Y-110552533D01*
X59433975Y-110473589D01*
X59433972Y-110473588D01*
X59190640Y-110394526D01*
X59064284Y-110374513D01*
X58937930Y-110354500D01*
X58682070Y-110354500D01*
X58597833Y-110367842D01*
X58429359Y-110394526D01*
X58186027Y-110473588D01*
X58186024Y-110473589D01*
X57958049Y-110589750D01*
X57751064Y-110740132D01*
X57751059Y-110740136D01*
X57570136Y-110921059D01*
X57570132Y-110921064D01*
X57419750Y-111128049D01*
X57303589Y-111356024D01*
X57303588Y-111356027D01*
X57224526Y-111599359D01*
X57184500Y-111852070D01*
X55075500Y-111852070D01*
X55075500Y-111444030D01*
X55075765Y-111435920D01*
X55081001Y-111356027D01*
X55091433Y-111196870D01*
X55093547Y-111180802D01*
X55097861Y-111159118D01*
X55108564Y-111127869D01*
X55616518Y-110111963D01*
X55664101Y-110060810D01*
X55671937Y-110056531D01*
X56687961Y-109548518D01*
X56719214Y-109537813D01*
X56740840Y-109533511D01*
X56756903Y-109531397D01*
X56964270Y-109517805D01*
X56995958Y-109515729D01*
X57004067Y-109515464D01*
X57024531Y-109515464D01*
X70755469Y-109515464D01*
X70775933Y-109515464D01*
X70784042Y-109515729D01*
G37*
%TD.AperFunction*%
%TD*%
M02*
